<svg width="25" height="20" viewBox="0 0 25 20" fill="none" xmlns="http://www.w3.org/2000/svg">
<g opacity="0.65">
<path d="M24.6164 2.36769C23.701 2.76923 22.7256 3.03538 21.7087 3.16462C22.7548 2.54 23.5533 1.55846 23.9287 0.375385C22.9533 0.956923 21.8764 1.36769 20.7287 1.59692C19.8025 0.610769 18.4825 0 17.0425 0C14.2487 0 11.9994 2.26769 11.9994 5.04769C11.9994 5.44769 12.0333 5.83231 12.1164 6.19846C7.92098 5.99385 4.20867 3.98308 1.71482 0.92C1.27944 1.67538 1.02405 2.54 1.02405 3.47077C1.02405 5.21846 1.92405 6.76769 3.26559 7.66462C2.45482 7.64923 1.65944 7.41385 0.985592 7.04308C0.985592 7.05846 0.985592 7.07846 0.985592 7.09846C0.985592 9.55077 2.73482 11.5877 5.02867 12.0569C4.6179 12.1692 4.17021 12.2231 3.70559 12.2231C3.38252 12.2231 3.05636 12.2046 2.75021 12.1369C3.40405 14.1354 5.25944 15.6046 7.46559 15.6523C5.74867 16.9954 3.56867 17.8046 1.20867 17.8046C0.794823 17.8046 0.3979 17.7862 0.000976562 17.7354C2.23636 19.1769 4.88559 20 7.74252 20C17.0287 20 22.1056 12.3077 22.1056 5.64C22.1056 5.41692 22.0979 5.20154 22.0871 4.98769C23.0887 4.27692 23.9302 3.38923 24.6164 2.36769Z" fill="white"/>
</g>
</svg>
