<svg width="267" height="33" viewBox="0 0 267 33" fill="none" xmlns="http://www.w3.org/2000/svg">
<path d="M0.541748 30.9315V1.15932H5.02825L15.3245 22.2479L25.6207 1.15932H30.1072V30.9315H25.4553V11.8483L16.3169 30.9315H14.332L5.21432 11.8483V30.9315H0.541748Z" fill="white"/>
<path d="M46.8941 31.5517C44.6336 31.5517 42.6488 31.0624 40.9396 30.0838C39.2305 29.1052 37.8935 27.7475 36.9286 26.0108C35.9776 24.2741 35.5021 22.2755 35.5021 20.015C35.5021 17.5754 35.9707 15.4596 36.908 13.6678C37.8452 11.8621 39.1478 10.4631 40.8156 9.47071C42.4834 8.4783 44.413 7.9821 46.6046 7.9821C48.9202 7.9821 50.8843 8.52655 52.497 9.61544C54.1234 10.6905 55.3295 12.2136 56.1151 14.1846C56.9008 16.1557 57.1971 18.4782 57.0042 21.1521H52.0628V19.3327C52.049 16.9069 51.6218 15.1357 50.781 14.0192C49.9402 12.9028 48.617 12.3445 46.8113 12.3445C44.7714 12.3445 43.2552 12.9786 42.2628 14.2467C41.2704 15.5009 40.7742 17.341 40.7742 19.7669C40.7742 22.0274 41.2704 23.7779 42.2628 25.0184C43.2552 26.2589 44.7025 26.8792 46.6046 26.8792C47.8313 26.8792 48.8857 26.6104 49.7679 26.0728C50.6638 25.5215 51.353 24.7289 51.8354 23.6952L56.7561 25.1838C55.9015 27.1962 54.5783 28.7606 52.7865 29.877C51.0084 30.9935 49.0443 31.5517 46.8941 31.5517ZM39.2029 21.1521V17.3893H54.5645V21.1521H39.2029Z" fill="white"/>
<path d="M77.2829 30.9315V20.1804C77.2829 19.4775 77.2347 18.6987 77.1382 17.8441C77.0417 16.9896 76.8143 16.1694 76.4559 15.3838C76.1113 14.5844 75.5876 13.9296 74.8846 13.4197C74.1954 12.9097 73.2582 12.6547 72.0728 12.6547C71.4387 12.6547 70.8116 12.7581 70.1913 12.9648C69.5711 13.1716 69.006 13.5299 68.496 14.0399C67.9998 14.5361 67.6001 15.2253 67.2968 16.1074C66.9936 16.9758 66.842 18.0922 66.842 19.4568L63.8854 18.1956C63.8854 16.2935 64.2507 14.5706 64.9812 13.0268C65.7255 11.4831 66.8144 10.2564 68.2479 9.34666C69.6814 8.42317 71.4456 7.96143 73.5407 7.96143C75.1947 7.96143 76.5593 8.23709 77.6344 8.78843C78.7095 9.33977 79.5641 10.0427 80.1981 10.8973C80.8321 11.7519 81.3008 12.6616 81.604 13.6264C81.9072 14.5912 82.1002 15.5078 82.1829 16.3762C82.2794 17.2308 82.3276 17.9268 82.3276 18.4644V30.9315H77.2829ZM61.7972 30.9315V8.60236H66.2424V15.5285H66.842V30.9315H61.7972Z" fill="white"/>
<path d="M101.637 30.9315C100.162 31.2071 98.7151 31.3243 97.2954 31.283C95.8895 31.2554 94.6284 31.0004 93.5119 30.518C92.3954 30.0218 91.5478 29.243 90.9689 28.1817C90.4589 27.2168 90.1901 26.2313 90.1625 25.2251C90.135 24.219 90.1212 23.0818 90.1212 21.8137V2.39982H95.0832V21.5243C95.0832 22.4202 95.0901 23.2059 95.1039 23.8813C95.1314 24.5566 95.2762 25.108 95.5381 25.5353C96.0343 26.3623 96.8268 26.824 97.9157 26.9205C99.0046 27.017 100.245 26.9619 101.637 26.7551V30.9315ZM86.0689 12.51V8.60236H101.637V12.51H86.0689Z" fill="white"/>
<path d="M115.997 31.5517C113.764 31.5517 111.814 31.0486 110.146 30.0424C108.478 29.0363 107.183 27.651 106.259 25.8867C105.349 24.1087 104.895 22.0687 104.895 19.7669C104.895 17.4237 105.363 15.37 106.3 13.6057C107.238 11.8415 108.54 10.4631 110.208 9.47071C111.876 8.4783 113.805 7.9821 115.997 7.9821C118.244 7.9821 120.201 8.4852 121.869 9.49138C123.537 10.4976 124.832 11.8897 125.756 13.6678C126.679 15.432 127.141 17.4651 127.141 19.7669C127.141 22.0825 126.672 24.1294 125.735 25.9074C124.812 27.6717 123.516 29.0569 121.848 30.0631C120.18 31.0555 118.23 31.5517 115.997 31.5517ZM115.997 26.8792C117.982 26.8792 119.457 26.2175 120.422 24.8943C121.386 23.5711 121.869 21.862 121.869 19.7669C121.869 17.6029 121.379 15.88 120.401 14.5981C119.422 13.3025 117.954 12.6547 115.997 12.6547C114.66 12.6547 113.557 12.9579 112.689 13.5644C111.834 14.1571 111.2 14.991 110.787 16.0661C110.373 17.1274 110.167 18.361 110.167 19.7669C110.167 21.9309 110.656 23.6607 111.635 24.9564C112.627 26.2382 114.081 26.8792 115.997 26.8792Z" fill="white"/>
<path d="M132.523 30.9315V8.60236H136.927V14.0399L136.389 13.337C136.665 12.5927 137.03 11.9173 137.485 11.3108C137.954 10.6905 138.512 10.1806 139.16 9.78084C139.711 9.40868 140.318 9.11923 140.979 8.91248C141.655 8.69195 142.344 8.561 143.047 8.51965C143.75 8.46452 144.432 8.49209 145.094 8.60236V13.2543C144.432 13.0613 143.667 12.9993 142.799 13.0682C141.944 13.1371 141.172 13.3783 140.483 13.7918C139.794 14.164 139.229 14.6395 138.788 15.2184C138.361 15.7973 138.044 16.4589 137.837 17.2032C137.63 17.9337 137.527 18.7263 137.527 19.5808V30.9315H132.523Z" fill="white"/>
<path d="M162.457 31.5517C159.48 31.5517 156.93 30.9039 154.807 29.6083C152.685 28.2988 151.051 26.4794 149.907 24.15C148.777 21.8206 148.212 19.1191 148.212 16.0454C148.212 12.9717 148.777 10.2701 149.907 7.94075C151.051 5.61136 152.685 3.79884 154.807 2.5032C156.93 1.19377 159.48 0.539062 162.457 0.539062C165.889 0.539062 168.749 1.40053 171.037 3.12345C173.325 4.83259 174.931 7.14131 175.855 10.0496L170.831 11.4348C170.252 9.49138 169.266 7.97521 167.874 6.88632C166.482 5.78365 164.676 5.23231 162.457 5.23231C160.459 5.23231 158.791 5.68027 157.454 6.57619C156.131 7.47212 155.131 8.7333 154.456 10.3597C153.794 11.9724 153.457 13.8676 153.443 16.0454C153.443 18.2232 153.774 20.1253 154.435 21.7517C155.111 23.3644 156.117 24.6187 157.454 25.5146C158.791 26.4105 160.459 26.8585 162.457 26.8585C164.676 26.8585 166.482 26.3071 167.874 25.2045C169.266 24.1018 170.252 22.5856 170.831 20.6559L175.855 22.0412C174.931 24.9495 173.325 27.2651 171.037 28.988C168.749 30.6972 165.889 31.5517 162.457 31.5517Z" fill="white"/>
<path d="M181.635 30.9315V0.539062H186.617V30.9315H181.635Z" fill="white"/>
<path d="M203.5 31.5517C201.267 31.5517 199.316 31.0486 197.649 30.0424C195.981 29.0363 194.685 27.651 193.762 25.8867C192.852 24.1087 192.397 22.0687 192.397 19.7669C192.397 17.4237 192.866 15.37 193.803 13.6057C194.74 11.8415 196.043 10.4631 197.711 9.47071C199.378 8.4783 201.308 7.9821 203.5 7.9821C205.746 7.9821 207.704 8.4852 209.371 9.49138C211.039 10.4976 212.335 11.8897 213.258 13.6678C214.182 15.432 214.643 17.4651 214.643 19.7669C214.643 22.0825 214.175 24.1294 213.238 25.9074C212.314 27.6717 211.018 29.0569 209.351 30.0631C207.683 31.0555 205.733 31.5517 203.5 31.5517ZM203.5 26.8792C205.484 26.8792 206.959 26.2175 207.924 24.8943C208.889 23.5711 209.371 21.862 209.371 19.7669C209.371 17.6029 208.882 15.88 207.903 14.5981C206.925 13.3025 205.457 12.6547 203.5 12.6547C202.163 12.6547 201.06 12.9579 200.192 13.5644C199.337 14.1571 198.703 14.991 198.289 16.0661C197.876 17.1274 197.669 18.361 197.669 19.7669C197.669 21.9309 198.159 23.6607 199.137 24.9564C200.13 26.2382 201.584 26.8792 203.5 26.8792Z" fill="white"/>
<path d="M228.399 31.5724C226.745 31.5724 225.381 31.2967 224.306 30.7454C223.23 30.1941 222.376 29.4911 221.742 28.6365C221.108 27.782 220.639 26.8723 220.336 25.9074C220.033 24.9426 219.833 24.0329 219.736 23.1783C219.654 22.31 219.612 21.607 219.612 21.0694V8.60236H224.657V19.3534C224.657 20.0426 224.705 20.8213 224.802 21.6897C224.898 22.5443 225.119 23.3713 225.463 24.1707C225.822 24.9564 226.345 25.6042 227.035 26.1142C227.738 26.6242 228.682 26.8792 229.867 26.8792C230.501 26.8792 231.128 26.7758 231.749 26.569C232.369 26.3623 232.927 26.0108 233.423 25.5146C233.933 25.0046 234.34 24.3085 234.643 23.4264C234.946 22.5443 235.098 21.4278 235.098 20.077L238.054 21.3382C238.054 23.2403 237.682 24.9633 236.938 26.507C236.207 28.0507 235.126 29.2844 233.692 30.2078C232.259 31.1175 230.494 31.5724 228.399 31.5724ZM235.698 30.9315V24.0053H235.098V8.60236H240.101V30.9315H235.698Z" fill="white"/>
<path d="M255.689 31.5517C253.636 31.5517 251.844 31.0348 250.314 30.0011C248.784 28.9673 247.599 27.5614 246.758 25.7834C245.917 24.0053 245.497 21.9998 245.497 19.7669C245.497 17.5064 245.917 15.4941 246.758 13.7298C247.612 11.9517 248.818 10.5527 250.376 9.53273C251.933 8.49898 253.767 7.9821 255.875 7.9821C257.998 7.9821 259.776 8.49898 261.21 9.53273C262.657 10.5527 263.753 11.9517 264.497 13.7298C265.241 15.5078 265.613 17.5202 265.613 19.7669C265.613 21.986 265.241 23.9915 264.497 25.7834C263.753 27.5614 262.643 28.9673 261.168 30.0011C259.693 31.0348 257.867 31.5517 255.689 31.5517ZM256.454 27.0859C257.791 27.0859 258.866 26.7827 259.68 26.1762C260.507 25.5559 261.106 24.6945 261.478 23.5918C261.864 22.4891 262.057 21.2142 262.057 19.7669C262.057 18.3059 261.864 17.0309 261.478 15.942C261.106 14.8393 260.52 13.9848 259.721 13.3783C258.922 12.7581 257.888 12.4479 256.62 12.4479C255.283 12.4479 254.18 12.7787 253.312 13.4403C252.443 14.0882 251.802 14.9703 251.389 16.0867C250.975 17.1894 250.769 18.4161 250.769 19.7669C250.769 21.1315 250.969 22.372 251.368 23.4884C251.782 24.5911 252.409 25.4664 253.25 26.1142C254.091 26.762 255.159 27.0859 256.454 27.0859ZM262.057 30.9315V15.2597H261.437V1.15932H266.461V30.9315H262.057Z" fill="white"/>
<path fill-rule="evenodd" clip-rule="evenodd" d="M0 31.473V0.620253H5.36428L15.323 21.0177L25.2817 0.620253H30.646V31.473H24.9135V14.2289L16.6557 31.473H13.9899L5.75319 14.2337V31.473H0ZM5.21288 11.8496L14.3306 30.9327H16.3154L25.4538 11.8496V30.9327H30.1057V1.16056H25.6192L15.323 22.2492L5.02681 1.16056H0.540308V30.9327H5.21288V11.8496ZM36.4549 26.2744L36.4533 26.2716C35.4528 24.4446 34.9603 22.3544 34.9603 20.0163C34.9603 17.5077 35.4424 15.3029 36.4273 13.4195C37.4085 11.5294 38.7794 10.0539 40.5378 9.00763C42.2996 7.95931 44.3272 7.44304 46.6032 7.44304C49.0047 7.44304 51.0784 8.00853 52.7958 9.16744C54.5212 10.3087 55.7933 11.9228 56.6156 13.9858C57.4384 16.05 57.739 18.4577 57.5416 21.1923L57.5055 21.6937H41.4583C41.6625 22.9375 42.0785 23.9261 42.6833 24.6821C43.5526 25.7687 44.8292 26.3401 46.6032 26.3401C47.749 26.3401 48.7018 26.0898 49.4843 25.6132C50.2821 25.122 50.9029 24.414 51.3443 23.4679L51.5423 23.0437L57.4872 24.8422L57.252 25.3962C56.3557 27.5067 54.9608 29.159 53.0715 30.3364C51.2054 31.5079 49.1416 32.0933 46.8926 32.0933C44.5521 32.0933 42.472 31.5859 40.6697 30.5539C38.8743 29.5259 37.4671 28.0965 36.4549 26.2744ZM52.785 29.8783C54.4267 28.8554 55.675 27.4565 56.5299 25.6815C56.6081 25.5192 56.683 25.3537 56.7546 25.185L51.834 23.6964C51.3515 24.7302 50.6624 25.5227 49.7664 26.0741C48.8843 26.6116 47.8299 26.8804 46.6032 26.8804C44.701 26.8804 43.2538 26.2601 42.2614 25.0196C41.5716 24.1574 41.1215 23.0487 40.9112 21.6937C40.8839 21.5177 40.8606 21.3376 40.8414 21.1534H57.0027C57.1957 18.4794 56.8994 16.1569 56.1137 14.1859C55.328 12.2149 54.122 10.6918 52.4956 9.61668C50.8829 8.52779 48.9188 7.98335 46.6032 7.98335C44.4116 7.98335 42.4819 8.47955 40.8141 9.47195C39.1463 10.4644 37.8438 11.8634 36.9065 13.669C35.9693 15.4608 35.5006 17.5766 35.5006 20.0163C35.5006 22.2767 35.9761 24.2753 36.9272 26.012C37.892 27.7488 39.229 29.1064 40.9382 30.085C42.6473 31.0637 44.6321 31.553 46.8926 31.553C49.0428 31.553 51.007 30.9947 52.785 29.8783ZM41.074 16.8502C41.0328 17.0253 40.9958 17.2054 40.9631 17.3905H51.9453C51.9223 17.205 51.896 17.0249 51.8662 16.8502C51.6628 15.6556 51.3005 14.7123 50.7795 14.0205C49.9387 12.904 48.6155 12.3458 46.8099 12.3458C44.77 12.3458 43.2538 12.9798 42.2614 14.2479C41.7154 14.938 41.3196 15.8054 41.074 16.8502ZM51.3177 16.8502C51.1225 15.7624 50.7921 14.9353 50.3479 14.3455C49.638 13.4028 48.5001 12.8861 46.8099 12.8861C44.8875 12.8861 43.5503 13.4777 42.6869 14.5809L42.6851 14.5832C42.2178 15.1737 41.862 15.9253 41.6299 16.8502H51.3177ZM76.7412 31.473V20.1817C76.7412 19.5028 76.6945 18.7447 76.5998 17.906C76.5098 17.1082 76.2977 16.3433 75.9629 15.6093L75.9605 15.6041L75.9583 15.5989C75.6521 14.8885 75.19 14.311 74.5659 13.8582L74.5617 13.8552C73.9953 13.436 73.1843 13.1962 72.0713 13.1962C71.4972 13.1962 70.9277 13.2897 70.3608 13.4786C69.828 13.6562 69.3335 13.9663 68.8766 14.4232C68.4544 14.8454 68.0913 15.4554 67.8064 16.2843L67.8055 16.2868C67.5294 17.0773 67.3808 18.1277 67.3808 19.458V31.473H61.2555V8.06329H66.7813V9.76802C67.145 9.45052 67.5364 9.15866 67.9555 8.89263C69.494 7.90201 71.365 7.42236 73.5393 7.42236C75.249 7.42236 76.7052 7.70672 77.8795 8.3089C79.0184 8.89294 79.9408 9.64688 80.6306 10.5766C81.2986 11.477 81.7958 12.4404 82.118 13.4657C82.4303 14.4592 82.6318 15.4114 82.7189 16.3213C82.8161 17.1836 82.8665 17.9005 82.8665 18.4656V31.473H76.7412ZM82.1815 16.3774C82.0988 15.5091 81.9058 14.5925 81.6026 13.6277C81.2993 12.6628 80.8307 11.7531 80.1967 10.8985C79.5626 10.044 78.7081 9.34101 77.6329 8.78967C76.5578 8.23834 75.1933 7.96267 73.5393 7.96267C71.4442 7.96267 69.6799 8.42441 68.2465 9.3479C67.7098 9.6885 67.2214 10.0735 66.7813 10.503C66.5923 10.6875 66.4122 10.8801 66.241 11.081V8.6036H61.7958V30.9327H66.8405V19.458C66.8405 19.2583 66.8438 19.0639 66.8503 18.8748C66.8882 17.772 67.0365 16.8499 67.2954 16.1087C67.3231 16.0281 67.3516 15.9492 67.3808 15.8719C67.6724 15.1023 68.0436 14.4921 68.4945 14.0412C69.0045 13.5312 69.5697 13.1728 70.1899 12.966C70.8102 12.7593 71.4373 12.6559 72.0713 12.6559C73.2567 12.6559 74.194 12.9109 74.8832 13.4209C75.5861 13.9309 76.1099 14.5856 76.4545 15.385C76.8128 16.1707 77.0403 16.9908 77.1367 17.8454C77.2332 18.6999 77.2815 19.4787 77.2815 20.1817V30.9327H82.3262V18.4656C82.3262 17.9281 82.278 17.232 82.1815 16.3774ZM102.176 31.3814L101.735 31.4638C100.225 31.746 98.7403 31.8667 97.2808 31.8243C95.8166 31.7954 94.4855 31.5291 93.2962 31.0152L93.291 31.013C92.0673 30.4691 91.1295 29.6084 90.4931 28.4417L90.4914 28.4385L90.4897 28.4354C89.9443 27.4035 89.651 26.3372 89.621 25.2412C89.5933 24.229 89.5794 23.0868 89.5794 21.815V13.0515H85.5271V8.06329H89.5794V1.86076H95.6221V8.06329H102.176V13.0515H95.6221V21.5255C95.6221 22.4164 95.6289 23.1964 95.6425 23.8659C95.6681 24.4772 95.7981 24.9291 95.9973 25.2542L95.9999 25.2585C96.3944 25.9159 97.0188 26.3 97.9619 26.3835C98.9984 26.4754 100.195 26.4241 101.556 26.2219L102.176 26.1299V31.3814ZM95.1024 23.8825C95.0887 23.2071 95.0818 22.4215 95.0818 21.5255V12.5112H101.636V8.6036H95.0818V2.40107H90.1197V8.6036H86.0674V12.5112H90.1197V21.815C90.1197 23.0831 90.1335 24.2202 90.1611 25.2264C90.1887 26.2326 90.4574 27.2181 90.9674 28.1829C91.5463 29.2442 92.394 30.023 93.5105 30.5192C94.6269 31.0016 95.8881 31.2566 97.294 31.2842C98.7137 31.3255 100.161 31.2084 101.636 30.9327V26.7563C101.453 26.7835 101.273 26.808 101.095 26.8299C99.9206 26.975 98.8602 27.0056 97.9143 26.9217C96.8254 26.8253 96.0328 26.3635 95.5366 25.5365C95.2747 25.1092 95.13 24.5579 95.1024 23.8825ZM105.779 26.1386L105.777 26.1341C104.822 24.269 104.353 22.1425 104.353 19.7682C104.353 17.3519 104.836 15.2083 105.822 13.3535C106.804 11.5046 108.175 10.0521 109.93 9.00763C111.692 7.95931 113.72 7.44304 115.996 7.44304C118.325 7.44304 120.382 7.9656 122.146 9.02999C123.902 10.089 125.266 11.5561 126.234 13.4196C127.203 15.2722 127.68 17.3932 127.68 19.7682C127.68 22.1575 127.196 24.2928 126.212 26.1592C125.244 28.0091 123.88 29.4685 122.126 30.527L122.123 30.5287C120.36 31.5779 118.311 32.0933 115.996 32.0933C113.679 32.0933 111.629 31.5704 109.865 30.5063C108.111 29.4479 106.747 27.9884 105.779 26.1386ZM125.734 25.9087C126.671 24.1306 127.139 22.0838 127.139 19.7682C127.139 17.4663 126.678 15.4333 125.754 13.669C124.831 11.8909 123.535 10.4988 121.867 9.49263C120.2 8.48644 118.242 7.98335 115.996 7.98335C113.804 7.98335 111.874 8.47955 110.207 9.47195C108.539 10.4644 107.236 11.8427 106.299 13.607C105.362 15.3713 104.893 17.425 104.893 19.7682C104.893 22.07 105.348 24.1099 106.258 25.888C107.181 27.6523 108.477 29.0375 110.145 30.0437C111.812 31.0499 113.763 31.553 115.996 31.553C118.228 31.553 120.179 31.0568 121.847 30.0644C123.514 29.0582 124.81 27.6729 125.734 25.9087ZM119.97 14.9272L119.968 14.925C119.113 13.7929 117.822 13.1962 115.996 13.1962C114.74 13.1962 113.753 13.4803 112.997 14.0086L112.996 14.0096C112.239 14.534 111.669 15.276 111.29 16.2613L111.289 16.2635C110.905 17.2495 110.706 18.4142 110.706 19.7682C110.706 21.852 111.176 23.4547 112.062 24.6294C112.933 25.7526 114.214 26.3401 115.996 26.3401C117.849 26.3401 119.142 25.7307 119.983 24.5772C120.864 23.3694 121.327 21.7809 121.327 19.7682C121.327 17.6824 120.856 16.0873 119.97 14.9272ZM111.633 24.9576C110.655 23.662 110.165 21.9322 110.165 19.7682C110.165 18.3623 110.372 17.1286 110.785 16.0673C111.199 14.9922 111.833 14.1583 112.688 13.5656C113.556 12.9592 114.659 12.6559 115.996 12.6559C117.953 12.6559 119.421 13.3037 120.399 14.5994C121.378 15.8812 121.867 17.6042 121.867 19.7682C121.867 21.8632 121.385 23.5724 120.42 24.8956C119.455 26.2188 117.98 26.8804 115.996 26.8804C114.08 26.8804 112.626 26.2395 111.633 24.9576ZM131.981 31.473V8.06329H137.466V10.4892C137.879 10.0377 138.345 9.65022 138.865 9.32812C139.459 8.929 140.109 8.61966 140.813 8.39911C141.53 8.16547 142.262 8.02621 143.008 7.98183C143.751 7.92399 144.476 7.95308 145.181 8.07064L145.633 8.14589V13.9759L144.941 13.7742C144.357 13.6038 143.66 13.543 142.841 13.608C142.063 13.6707 141.373 13.8885 140.76 14.2564L140.749 14.2627L140.738 14.2685C140.113 14.6063 139.609 15.032 139.219 15.5439C138.834 16.0652 138.546 16.665 138.356 17.3491L138.355 17.3516C138.164 18.0287 138.065 18.7711 138.065 19.5821V31.473H131.981ZM138.786 15.2196C139.227 14.6407 139.793 14.1652 140.482 13.7931C141.171 13.3795 141.943 13.1383 142.797 13.0694C143.439 13.0185 144.023 13.039 144.552 13.131C144.739 13.1635 144.919 13.205 145.092 13.2555V8.6036C144.431 8.49333 143.748 8.46576 143.045 8.5209C142.342 8.56225 141.653 8.69319 140.978 8.91373C140.316 9.12048 139.71 9.40993 139.158 9.78208C138.511 10.1818 137.952 10.6918 137.484 11.312C137.478 11.32 137.472 11.328 137.466 11.336C137.269 11.601 137.089 11.879 136.926 12.1702V8.6036H132.522V30.9327H137.525V19.5821C137.525 18.7275 137.629 17.935 137.835 17.2044C138.042 16.4601 138.359 15.7985 138.786 15.2196ZM154.525 30.0707L154.522 30.0694C152.309 28.7043 150.608 26.8063 149.421 24.3895L149.42 24.3871C148.248 21.9717 147.67 19.1869 147.67 16.0466C147.67 12.9064 148.248 10.1216 149.42 7.70613L149.421 7.70381C150.608 5.28662 152.31 3.395 154.524 2.04349C156.747 0.672796 159.399 0 162.456 0C165.981 0 168.961 0.88617 171.36 2.6922C173.744 4.4736 175.413 6.87944 176.368 9.88734L176.538 10.4225L170.463 12.0977L170.311 11.5903C169.76 9.73791 168.831 8.32312 167.54 7.31315L167.537 7.31111C166.262 6.30131 164.584 5.77387 162.456 5.77387C160.539 5.77387 158.983 6.20276 157.754 7.02564C156.528 7.85619 155.593 9.02897 154.954 10.5673C154.325 12.1014 153.995 13.9242 153.982 16.0479C153.982 18.1706 154.304 19.9998 154.933 21.5473C155.572 23.0696 156.513 24.2357 157.753 25.067C158.982 25.8903 160.538 26.3194 162.456 26.3194C164.584 26.3194 166.262 25.792 167.537 24.7822C168.831 23.7572 169.76 22.3404 170.312 20.5019L170.464 19.9959L176.538 21.6708L176.368 22.2059C175.413 25.2138 173.745 27.6259 171.361 29.4209L171.359 29.4221C168.96 31.2142 165.98 32.0933 162.456 32.0933C159.399 32.0933 156.747 31.4275 154.525 30.0707ZM154.434 21.753C153.772 20.1265 153.441 18.2244 153.441 16.0466C153.455 13.8689 153.793 11.9736 154.455 10.361C155.13 8.73454 156.129 7.47336 157.452 6.57744C158.789 5.68152 160.457 5.23356 162.456 5.23356C164.675 5.23356 166.481 5.78489 167.873 6.88756C169.265 7.97645 170.25 9.49263 170.829 11.4361L175.853 10.0509C175.798 9.87779 175.741 9.70668 175.681 9.53786C174.736 6.86982 173.188 4.7321 171.036 3.1247C168.748 1.40177 165.888 0.540308 162.456 0.540308C159.479 0.540308 156.929 1.19502 154.806 2.50444C152.683 3.80008 151.05 5.6126 149.906 7.94199C148.776 10.2714 148.211 12.9729 148.211 16.0466C148.211 19.1203 148.776 21.8219 149.906 24.1513C151.05 26.4807 152.683 28.3001 154.806 29.6095C156.929 30.9051 159.479 31.553 162.456 31.553C165.888 31.553 168.748 30.6984 171.036 28.9893C173.188 27.3689 174.736 25.2243 175.681 22.5554C175.741 22.3866 175.798 22.2156 175.853 22.0426L170.829 20.6572C170.25 22.5869 169.265 24.103 167.873 25.2057C166.481 26.3084 164.675 26.8597 162.456 26.8597C160.457 26.8597 158.789 26.4118 157.452 25.5158C156.115 24.6199 155.109 23.3656 154.434 21.753ZM181.093 31.473V0H187.156V31.473H181.093ZM193.281 26.1386L193.279 26.1341C192.325 24.269 191.855 22.1425 191.855 19.7682C191.855 17.3519 192.339 15.2083 193.324 13.3535C194.307 11.5046 195.677 10.0521 197.433 9.00763C199.195 7.95931 201.222 7.44304 203.498 7.44304C205.828 7.44304 207.885 7.9656 209.649 9.02999C211.404 10.089 212.768 11.5561 213.736 13.4196C214.706 15.2722 215.182 17.3932 215.182 19.7682C215.182 22.1576 214.698 24.2928 213.715 26.1592C212.747 28.0091 211.383 29.4685 209.628 30.527L209.626 30.5287C207.862 31.5779 205.813 32.0933 203.498 32.0933C201.182 32.0933 199.132 31.5704 197.368 30.5063C195.614 29.4479 194.25 27.9884 193.281 26.1386ZM213.236 25.9087C214.173 24.1306 214.642 22.0838 214.642 19.7682C214.642 17.4663 214.18 15.4333 213.257 13.669C212.333 11.8909 211.038 10.4988 209.37 9.49263C207.702 8.48644 205.745 7.98335 203.498 7.98335C201.307 7.98335 199.377 8.47955 197.709 9.47195C196.041 10.4644 194.739 11.8427 193.802 13.607C192.864 15.3713 192.396 17.425 192.396 19.7682C192.396 22.07 192.85 24.1099 193.76 25.888C194.684 27.6523 195.979 29.0375 197.647 30.0437C199.315 31.0499 201.265 31.553 203.498 31.553C205.731 31.553 207.681 31.0568 209.349 30.0644C211.017 29.0582 212.313 27.6729 213.236 25.9087ZM207.472 14.9272L207.471 14.925C206.616 13.7929 205.325 13.1962 203.498 13.1962C202.243 13.1962 201.256 13.4803 200.5 14.0086L200.498 14.0096C199.742 14.534 199.171 15.276 198.792 16.2613L198.791 16.2635C198.407 17.2495 198.208 18.4142 198.208 19.7682C198.208 21.852 198.679 23.4547 199.565 24.6294C200.436 25.7526 201.717 26.3401 203.498 26.3401C205.352 26.3401 206.645 25.7307 207.486 24.5772C208.367 23.3694 208.83 21.7809 208.83 19.7682C208.83 17.6824 208.358 16.0873 207.472 14.9272ZM199.136 24.9576C198.157 23.662 197.668 21.9322 197.668 19.7682C197.668 18.3623 197.875 17.1286 198.288 16.0673C198.702 14.9922 199.336 14.1583 200.19 13.5656C201.058 12.9592 202.161 12.6559 203.498 12.6559C205.455 12.6559 206.923 13.3037 207.902 14.5994C208.881 15.8812 209.37 17.6042 209.37 19.7682C209.37 21.8632 208.887 23.5724 207.923 24.8956C206.958 26.2188 205.483 26.8804 203.498 26.8804C201.582 26.8804 200.128 26.2395 199.136 24.9576ZM219.197 23.2355L219.197 23.2308C219.114 22.3545 219.071 21.6325 219.071 21.0707V8.06329H225.196V19.3547C225.196 20.0195 225.242 20.7778 225.337 21.6313C225.428 22.4302 225.633 23.2036 225.956 23.953C226.276 24.6527 226.74 25.2258 227.352 25.6795C227.935 26.1011 228.755 26.3401 229.866 26.3401C230.44 26.3401 231.009 26.2467 231.576 26.0577C232.111 25.8794 232.598 25.5751 233.04 25.1338C233.477 24.6964 233.847 24.0784 234.131 23.252C234.408 22.4456 234.556 21.3937 234.556 20.0783V8.06329H240.64V31.473H235.156V29.7777C234.793 30.0981 234.402 30.3934 233.983 30.6633L233.98 30.6653C232.442 31.6415 230.571 32.114 228.398 32.114C226.688 32.114 225.232 31.8296 224.058 31.2274C222.919 30.6434 221.996 29.8894 221.306 28.9597C220.638 28.0593 220.141 27.0959 219.819 26.0707C219.507 25.0784 219.299 24.1345 219.198 23.2402L219.197 23.2355ZM235.156 29.0386C235.345 28.8514 235.525 28.6562 235.696 28.4528V30.9327H240.1V8.6036H235.096V20.0783C235.096 20.2778 235.093 20.4722 235.087 20.6615C235.048 21.7537 234.9 22.6758 234.642 23.4276C234.614 23.508 234.586 23.5869 234.556 23.6642C234.263 24.4351 233.885 25.0523 233.422 25.5158C232.926 26.012 232.367 26.3635 231.747 26.5703C231.127 26.777 230.5 26.8804 229.866 26.8804C228.68 26.8804 227.736 26.6254 227.033 26.1154C226.344 25.6054 225.82 24.9576 225.462 24.172C225.117 23.3725 224.897 22.5455 224.8 21.6909C224.704 20.8226 224.656 20.0438 224.656 19.3547V8.6036H219.611V21.0707C219.611 21.6082 219.652 22.3112 219.735 23.1796C219.831 24.0341 220.031 24.9438 220.334 25.9087C220.638 26.8735 221.106 27.7832 221.74 28.6378C222.374 29.4923 223.229 30.1953 224.304 30.7466C225.379 31.298 226.744 31.5736 228.398 31.5736C230.493 31.5736 232.257 31.1188 233.691 30.2091C234.228 29.8626 234.717 29.4724 235.156 29.0386ZM246.269 13.4986L246.269 13.497C247.164 11.6364 248.433 10.1602 250.077 9.08312C251.734 7.98367 253.673 7.44304 255.874 7.44304C257.795 7.44304 259.476 7.85005 260.895 8.68523V0.620253H267V31.473H261.516V30.4176C261.503 30.4267 261.49 30.4357 261.477 30.4448C259.894 31.5546 257.953 32.0933 255.688 32.0933C253.539 32.0933 251.639 31.5508 250.01 30.45C248.394 29.3585 247.147 27.8753 246.268 26.0156C245.389 24.1561 244.955 22.0701 244.955 19.7682C244.955 17.4398 245.388 15.346 246.269 13.4986ZM261.516 29.7457C261.402 29.8337 261.285 29.9192 261.167 30.0023C259.692 31.0361 257.866 31.553 255.688 31.553C253.634 31.553 251.842 31.0361 250.312 30.0023C248.782 28.9686 247.597 27.5627 246.756 25.7846C245.916 24.0066 245.495 22.0011 245.495 19.7682C245.495 17.5077 245.916 15.4953 246.756 13.731C247.611 11.953 248.817 10.554 250.374 9.53398C251.932 8.50023 253.765 7.98335 255.874 7.98335C257.845 7.98335 259.519 8.42894 260.895 9.32012C261.001 9.38876 261.106 9.46005 261.208 9.53398C261.285 9.58811 261.361 9.64331 261.436 9.69957V1.16056H266.46V30.9327H262.056V29.2944C261.882 29.4513 261.702 29.6017 261.516 29.7457ZM261.516 23.4802C261.876 22.4037 262.056 21.1663 262.056 19.7682C262.056 18.3567 261.876 17.1189 261.516 16.0547C261.503 16.0174 261.49 15.9802 261.477 15.9433C261.461 15.8955 261.444 15.8482 261.427 15.8013C261.36 15.6137 261.285 15.4336 261.205 15.261C261.11 15.059 261.007 14.8673 260.895 14.6857C260.575 14.1668 260.183 13.7314 259.72 13.3795C258.92 12.7593 257.886 12.4492 256.618 12.4492C255.281 12.4492 254.179 12.78 253.31 13.4416C252.442 14.0894 251.801 14.9715 251.388 16.088C250.974 17.1907 250.767 18.4174 250.767 19.7682C250.767 21.1327 250.967 22.3732 251.367 23.4897C251.78 24.5923 252.408 25.4676 253.248 26.1154C254.089 26.7632 255.157 27.0871 256.453 27.0871C257.79 27.0871 258.865 26.7839 259.678 26.1774C260.505 25.5572 261.105 24.6957 261.477 23.5931C261.49 23.5556 261.503 23.518 261.516 23.4802ZM259.355 25.7443C260.084 25.1977 260.623 24.4324 260.965 23.4203L260.967 23.4145C261.329 22.3811 261.516 21.1686 261.516 19.7682C261.516 18.3531 261.328 17.1417 260.968 16.1238L260.966 16.1199L260.965 16.116C260.622 15.0991 260.093 14.3411 259.393 13.81L259.388 13.8065C258.706 13.2766 257.797 12.9895 256.618 12.9895C255.372 12.9895 254.392 13.2964 253.638 13.8714L253.633 13.8747C252.857 14.454 252.275 15.2469 251.894 16.2756L251.893 16.2777C251.506 17.3115 251.308 18.4728 251.308 19.7682C251.308 21.0783 251.499 22.2549 251.874 23.304C252.256 24.321 252.827 25.1084 253.578 25.6874C254.305 26.2475 255.25 26.5468 256.453 26.5468C257.71 26.5468 258.661 26.262 259.355 25.7443ZM181.633 0.540308H186.616V30.9327H181.633V0.540308Z" fill="white"/>
</svg>
