<svg width="20" height="20" viewBox="0 0 20 20" fill="none" xmlns="http://www.w3.org/2000/svg">
<g opacity="0.65">
<path d="M19.9948 19.9999V19.9991H19.9998V12.664C19.9998 9.0757 19.2273 6.31152 15.0323 6.31152C13.0157 6.31152 11.6623 7.41819 11.1098 8.46736H11.0515V6.64652H7.07397V19.9991H11.2156V13.3874C11.2156 11.6465 11.5457 9.9632 13.7015 9.9632C15.8257 9.9632 15.8573 11.9499 15.8573 13.499V19.9999H19.9948Z" fill="white"/>
<path d="M0.3302 6.64746H4.47688V20H0.3302V6.64746Z" fill="white"/>
<path d="M2.40167 0C1.07584 0 0 1.07584 0 2.40167C0 3.72751 1.07584 4.82584 2.40167 4.82584C3.72751 4.82584 4.80334 3.72751 4.80334 2.40167C4.80251 1.07584 3.72667 0 2.40167 0V0Z" fill="white"/>
</g>
</svg>
