<svg width="30" height="20" viewBox="0 0 30 20" fill="none" xmlns="http://www.w3.org/2000/svg">
<g opacity="0.65">
<path d="M28.5926 3.12952C28.2634 1.90578 27.2986 0.941123 26.075 0.611608C23.8397 0 14.8983 0 14.8983 0C14.8983 0 5.95732 0 3.72202 0.58842C2.52199 0.917586 1.53362 1.90596 1.20446 3.12952C0.616211 5.36465 0.616211 10 0.616211 10C0.616211 10 0.616211 14.6587 1.20446 16.8705C1.53397 18.094 2.49846 19.0587 3.7222 19.3882C5.98086 20 14.8987 20 14.8987 20C14.8987 20 23.8397 20 26.075 19.4116C27.2987 19.0822 28.2634 18.1176 28.5929 16.894C29.181 14.6587 29.181 10.0235 29.181 10.0235C29.181 10.0235 29.2045 5.36465 28.5926 3.12952ZM12.0516 14.2823V5.7177L19.4868 10L12.0516 14.2823Z" fill="white"/>
</g>
</svg>
