<svg width="1920" height="900" viewBox="0 0 1920 900" fill="none" xmlns="http://www.w3.org/2000/svg">
<mask id="mask0" mask-type="alpha" maskUnits="userSpaceOnUse" x="0" y="0" width="1920" height="900">
<rect width="1920" height="900" fill="#C4C4C4"/>
</mask>
<g mask="url(#mask0)">
<mask id="mask1" mask-type="alpha" maskUnits="userSpaceOnUse" x="-3235" y="-1" width="5529" height="902">
<path d="M2292.96 887.441C1068.82 986.966 1728.26 463.926 693.569 410.02C-341.119 356.115 620.701 30.9135 -388.476 0.702218C-1397.65 -29.509 -884.03 925.349 -1823.94 887.441C-2763.85 849.534 -2457.88 283.837 -3233.9 192.024" stroke="black" stroke-width="0.314942"/>
<path d="M2292.97 883.74C1076.46 981.369 1721.95 462.981 695.185 408.693C495.721 398.129 370.239 377.558 290.106 351.155C-39.1742 241.703 418.121 29.5072 -386.875 6.37071C-1129.06 -14.4712 -1045.66 498.961 -1335.79 750.211C-1436.89 837.547 -1582.77 893.03 -1824.2 883.023C-2758.39 844.319 -2461 284.008 -3233.89 193.295" stroke="black" stroke-width="0.314942"/>
<path d="M2292.97 880.054C1084.08 975.802 1715.63 462.052 696.795 407.397C498.621 396.706 373.33 376.262 292.4 350.178C-36.2586 242.383 411.349 33.9631 -385.282 12.0536C-1121.33 -7.22684 -1043.54 500.421 -1336.55 748.421C-1438.65 834.466 -1584.55 888.818 -1824.46 878.62C-2752.85 839.103 -2464.08 284.178 -3233.86 194.58" stroke="black" stroke-width="0.314942"/>
<path d="M2292.97 876.353C1091.71 970.221 1709.32 461.107 698.42 406.07C501.521 395.267 376.278 374.935 294.695 349.201C-33.3584 243.063 404.641 38.4841 -383.688 17.7696C-1113.59 0.0507715 -1041.42 501.915 -1337.38 746.68C-1440.46 831.275 -1586.4 884.654 -1824.76 874.249C-2747.35 833.936 -2467.23 284.381 -3233.89 195.898" stroke="black" stroke-width="0.314942"/>
<path d="M2292.97 872.595C1099.32 964.583 1703.01 460.106 700.029 404.703C504.421 393.788 379.305 373.567 296.989 348.152C-30.4588 243.672 397.789 42.8211 -382.095 23.3335C-1105.86 7.17625 -1039.3 503.256 -1338.15 744.787C-1442.21 828.011 -1588.17 880.323 -1825 869.727C-2741.82 828.601 -2470.34 284.432 -3233.86 197.064" stroke="black" stroke-width="0.314942"/>
<path d="M2292.97 868.961C1106.96 959.069 1696.68 459.229 701.639 403.443C507.242 392.417 382.317 372.308 299.284 347.227C-27.5426 244.42 391.017 47.3294 -380.501 29.0688C-1098.11 14.4731 -1037.18 504.753 -1338.98 743.049C-1444.01 824.919 -1590.02 876.179 -1825.32 865.376C-2736.34 823.437 -2473.48 284.669 -3233.9 198.402" stroke="black" stroke-width="0.314942"/>
<path d="M2292.97 865.26C1114.57 953.472 1690.37 458.284 703.248 402.132C510.205 390.978 385.328 370.997 301.578 346.251C-24.643 245.085 384.245 51.7869 -378.908 34.7373C-1090.39 21.7031 -1035.06 506.199 -1339.74 741.26C-1445.77 821.76 -1591.8 871.921 -1825.56 860.958C-2730.8 818.222 -2476.57 284.825 -3233.86 199.688" stroke="black" stroke-width="0.314942"/>
<path d="M2292.97 861.555C1122.21 947.886 1684.06 457.32 704.873 400.817C513.105 389.535 388.356 369.665 303.873 345.254C-21.7268 245.761 377.473 56.2235 -377.298 40.4008C-1082.64 28.9282 -1032.93 507.64 -1340.57 739.451C-1447.58 818.58 -1593.65 867.737 -1825.88 856.535C-2725.32 812.987 -2479.72 284.975 -3233.89 200.938" stroke="black" stroke-width="0.314942"/>
<path d="M2292.97 857.861C1129.78 942.312 1677.74 456.318 706.483 399.497C516.006 388.12 391.368 368.361 306.168 344.269C-18.8898 246.433 370.701 60.6401 -375.705 46.0762C-1074.91 36.1651 -1030.81 509.093 -1341.32 737.621C-1449.32 815.38 -1595.42 863.501 -1826.1 852.076C-2719.75 807.731 -2482.8 285.089 -3233.84 202.168" stroke="black" stroke-width="0.314942"/>
<path d="M2292.97 854.183C1137.46 936.754 1671.43 455.461 708.092 398.209C518.905 386.705 394.396 367.058 308.463 343.316C-15.9261 247.137 363.929 65.1683 -374.111 51.7198C-1067.25 43.3703 -1028.69 510.498 -1342.16 735.855C-1451.15 812.244 -1597.27 859.282 -1826.42 847.682C-2714.29 802.524 -2485.97 285.284 -3233.89 203.461" stroke="black" stroke-width="0.314942"/>
<path d="M2292.97 850.471C1145.09 931.162 1665.16 454.506 709.702 396.872C521.806 385.256 397.391 365.737 310.757 342.313C-13.0103 247.792 357.141 69.5994 -372.518 57.4257C-1059.44 50.6377 -1026.57 511.981 -1342.91 734.088C-1452.86 809.122 -1599.04 855.092 -1826.66 843.285C-2708.73 797.347 -2489.03 285.476 -3233.84 204.769" stroke="black" stroke-width="0.314942"/>
<path d="M2292.97 846.781C1152.7 925.592 1658.79 453.572 711.327 395.572C524.706 383.844 400.435 364.42 313.051 341.395C-10.1103 248.531 350.369 74.115 -370.925 63.1523C-1051.7 57.9099 -1024.45 513.485 -1343.76 732.389C-1454.71 806.037 -1600.9 850.971 -1826.98 838.957C-2703.26 792.206 -2492.2 285.721 -3233.89 206.114" stroke="black" stroke-width="0.314942"/>
<path d="M2292.97 843.067C1160.34 919.998 1652.42 452.679 712.936 394.249C527.606 382.409 403.447 363.113 315.331 340.359C-7.19374 249.168 343.598 78.5123 -369.331 68.7605C-1043.97 65.0957 -1022.33 514.918 -1344.5 730.524C-1456.43 802.802 -1602.64 846.669 -1827.2 834.463C-2697.69 786.915 -2495.26 285.8 -3233.82 207.308" stroke="black" stroke-width="0.314942"/>
<path d="M2292.97 839.38C1168.02 914.43 1646.17 451.7 714.546 392.951C530.506 380.984 406.474 361.8 317.625 339.38C-4.24635 249.846 336.745 82.9828 -367.722 74.442C-1036.23 72.3387 -1020.2 516.33 -1345.37 728.733C-1458.28 799.656 -1604.54 842.471 -1827.53 830.058C-2692.24 781.698 -2498.44 285.985 -3233.89 208.624" stroke="black" stroke-width="0.314942"/>
<path d="M2292.97 835.673C1175.59 908.843 1639.85 450.751 716.155 391.619C533.406 379.557 409.485 360.467 319.919 338.398C-1.39421 250.521 330.053 87.4347 -366.129 80.105C-1028.5 79.5632 -1018.08 517.77 -1346.16 726.938C-1460.04 796.475 -1606.35 838.255 -1827.81 825.635C-2686.66 776.478 -2501.57 286.134 -3233.89 209.857" stroke="black" stroke-width="0.314942"/>
<path d="M2292.97 831.972C1183.2 903.261 1633.53 449.805 717.764 390.307C536.305 378.117 412.513 359.156 322.214 337.406C1.52166 251.186 323.265 91.8753 -364.551 85.7725C-1020.77 86.7923 -1015.97 519.183 -1346.97 725.149C-1461.84 793.315 -1608.17 834.027 -1828.11 821.216C-2681.23 771.246 -2504.71 286.289 -3233.9 211.127" stroke="black" stroke-width="0.314942"/>
<path d="M2292.97 828.283C1190.84 897.693 1627.21 448.874 719.389 388.993C539.205 376.692 415.524 357.842 324.508 336.41C4.42158 251.847 316.541 96.3137 -362.942 91.4219C-1013.06 94.0032 -1013.84 520.642 -1347.76 723.325C-1463.61 790.137 -1609.97 829.797 -1828.36 816.779C-2675.7 765.997 -2507.81 286.425 -3233.89 212.379" stroke="black" stroke-width="0.314942"/>
<path d="M2292.97 824.57C1198.45 892.083 1620.9 447.917 720.999 387.67C542.106 375.241 418.536 356.518 326.802 335.437C7.32152 252.58 309.721 100.774 -361.348 97.1094C-1005.28 101.252 -1011.72 522.091 -1348.55 721.555C-1465.4 786.997 -1611.78 825.59 -1828.65 812.38C-2670.18 760.801 -2510.92 286.551 -3233.89 213.668" stroke="black" stroke-width="0.314942"/>
<path d="M2292.97 820.887C1206.08 886.52 1614.59 446.991 722.608 386.377C545.005 373.837 421.563 355.21 329.033 334.463C10.1736 253.199 302.886 105.25 -359.818 102.796C-997.601 108.5 -1009.66 523.555 -1349.41 719.784C-1467.25 783.84 -1613.67 821.397 -1829.03 807.98C-2664.78 755.588 -2514.2 286.788 -3234 214.957" stroke="black" stroke-width="0.314942"/>
<path d="M2292.97 817.188C1213.7 880.924 1608.26 446.048 724.218 385.052C547.906 372.4 424.575 353.901 331.391 333.489C13.1373 253.818 296.177 109.709 -358.162 108.466C-989.81 115.732 -1007.48 525.002 -1350.15 717.981C-1468.95 780.682 -1615.42 817.172 -1829.19 803.564C-2659.16 750.375 -2517.17 286.945 -3233.89 216.229" stroke="black" stroke-width="0.314942"/>
<path d="M2292.97 813.493C1221.33 875.365 1601.95 445.11 725.843 383.747C550.79 371 427.603 352.58 333.686 332.503C16.054 254.584 289.405 114.204 -356.552 114.204C-982.065 123.032 -1005.35 526.517 -1350.94 716.262C-1470.74 777.593 -1617.22 813.03 -1829.48 799.216C-2653.64 745.214 -2520.29 287.17 -3233.89 217.617" stroke="black" stroke-width="0.314942"/>
<path d="M2292.97 809.788C1228.95 869.78 1595.64 444.162 727.452 382.416C553.69 369.542 430.614 351.265 335.981 331.522C18.8902 255.245 282.617 118.61 -354.958 119.805C-974.337 130.194 -1003.23 527.88 -1351.74 714.406C-1472.52 774.366 -1619.04 808.736 -1829.77 794.73C-2648.15 739.932 -2523.43 287.257 -3233.9 218.772" stroke="black" stroke-width="0.314942"/>
<path d="M2292.97 806.101C1236.53 864.197 1589.32 443.231 729.062 381.119C556.59 368.117 433.642 349.952 338.275 330.544C21.8538 255.94 275.845 123.065 -353.365 125.487C-966.593 137.437 -1001.11 529.34 -1352.54 712.615C-1474.3 771.205 -1620.85 804.539 -1830.04 790.31C-2642.68 734.716 -2526.54 287.442 -3233.84 220.056" stroke="black" stroke-width="0.314942"/>
<path d="M2292.97 802.482C1244.2 858.698 1583.01 442.369 730.671 379.875C559.49 366.761 436.653 348.723 340.57 329.634C24.7697 256.687 269.073 127.604 -351.772 131.237C-958.865 144.733 -998.987 530.867 -1353.33 710.908C-1476.03 768.128 -1622.62 800.394 -1830.31 785.974C-2637.1 729.583 -2529.66 287.679 -3233.89 221.393" stroke="black" stroke-width="0.314942"/>
<path d="M2292.97 798.699C1251.83 853.035 1576.7 441.343 732.296 378.482C562.389 365.241 439.68 347.315 342.864 328.576C27.6693 257.286 262.301 131.98 -350.179 136.824C-951.121 151.882 -996.869 532.232 -1354.13 709.038C-1477.86 764.807 -1624.49 796.102 -1830.56 781.474C-2631.58 724.271 -2532.75 287.753 -3233.87 222.582" stroke="black" stroke-width="0.314942"/>
<path d="M2292.97 795.008C1259.45 847.464 1570.37 440.408 733.906 377.166C565.29 363.829 442.692 346.014 345.111 327.594C30.5379 257.978 255.481 136.384 -348.633 142.503C-943.441 159.122 -994.797 533.671 -1354.97 707.243C-1479.69 761.738 -1626.33 791.885 -1830.91 777.067C-2626.13 719.066 -2535.94 287.886 -3233.94 223.863" stroke="black" stroke-width="0.314942"/>
<path d="M2292.97 791.319C1267.08 841.91 1564.06 439.492 735.515 375.882C568.206 362.418 445.719 344.715 347.453 326.646C33.5492 258.67 248.757 140.916 -346.976 148.182C-935.649 166.363 -992.614 535.129 -1355.72 705.466C-1481.43 758.574 -1628.1 787.686 -1831.14 772.66C-2620.56 713.847 -2539.01 288.101 -3233.89 225.145" stroke="black" stroke-width="0.314942"/>
<path d="M2292.97 787.609C1274.7 836.304 1557.75 438.538 737.125 374.562C571.09 360.971 448.715 343.379 349.748 325.645C36.3857 259.342 241.969 145.349 -345.382 153.858C-927.921 173.6 -990.494 536.582 -1356.52 703.684C-1483.21 755.422 -1629.92 783.466 -1831.36 768.249C-2614.99 708.623 -2542.02 288.263 -3233.82 226.486" stroke="black" stroke-width="0.314942"/>
<path d="M2292.97 783.907C1282.33 830.722 1551.43 437.593 738.75 373.235C573.99 359.547 451.743 342.068 352.043 324.651C39.302 260.006 235.196 149.805 -343.789 159.525C-920.177 180.829 -988.375 538.027 -1357.32 701.878C-1484.98 752.262 -1631.73 779.254 -1831.69 763.83C-2609.54 703.408 -2545.26 288.417 -3233.9 227.692" stroke="black" stroke-width="0.314942"/>
<path d="M2292.97 780.173C1289.95 825.108 1545.12 436.616 740.359 371.891C576.89 358.076 454.77 340.708 354.337 323.642C42.2019 260.654 228.456 154.23 -342.196 165.161C-912.449 188.026 -986.256 539.423 -1358.11 700.056C-1486.77 749.054 -1633.55 774.947 -1831.96 759.379C-2604.02 698.144 -2548.38 288.539 -3233.89 228.929" stroke="black" stroke-width="0.314942"/>
<path d="M2292.97 776.505C1297.58 819.527 1538.79 435.704 741.969 370.597C579.79 356.67 457.782 339.429 356.632 322.682C45.1178 261.352 221.652 158.703 -340.602 170.861C-904.673 195.288 -984.137 540.902 -1358.91 698.284C-1488.55 745.911 -1635.35 770.8 -1832.25 754.978C-2598.5 692.946 -2551.51 288.727 -3233.89 230.216" stroke="black" stroke-width="0.314942"/>
<path d="M2292.97 772.813C1305.19 813.987 1532.48 434.769 743.577 369.295C582.642 355.257 460.809 338.112 358.926 321.715C48.0174 262.042 214.88 163.17 -338.993 176.539C-896.961 202.528 -982.002 542.356 -1359.69 696.504C-1490.35 742.713 -1637.15 766.614 -1832.51 750.584C-2592.97 687.74 -2554.61 288.907 -3233.87 231.512" stroke="black" stroke-width="0.314942"/>
<path d="M2292.97 769.106C1312.83 808.4 1526.17 433.819 745.203 367.963C585.59 353.813 463.821 336.795 361.188 320.718C50.8856 262.701 208.06 167.606 -337.447 182.185C-889.265 209.752 -979.914 543.797 -1360.53 694.71C-1492.14 739.612 -1639.02 762.382 -1832.84 746.161C-2587.5 682.52 -2557.77 289.056 -3233.92 232.777" stroke="black" stroke-width="0.314942"/>
<path d="M2292.97 765.416C1320.44 802.813 1519.85 432.884 746.813 366.662C588.49 352.321 466.848 335.479 363.515 319.736C53.8335 263.392 201.321 172.073 -335.806 187.864C-881.504 216.992 -977.763 545.237 -1361.3 692.979C-1493.89 736.511 -1640.8 758.309 -1833.08 741.817C-2581.99 677.363 -2560.86 289.285 -3233.89 234.121" stroke="black" stroke-width="0.314942"/>
<path d="M2292.97 761.727C1328.08 797.245 1513.53 431.889 748.422 365.348C591.374 351.007 469.86 334.181 365.809 318.772C56.6857 264.07 194.549 176.543 -334.212 193.545C-873.76 224.234 -975.644 546.695 -1362.1 691.139C-1495.67 733.301 -1642.54 753.968 -1833.35 737.348C-2576.44 672.114 -2563.98 289.421 -3233.89 235.341" stroke="black" stroke-width="0.314942"/>
<path d="M2292.97 758.023C1335.69 791.661 1507.22 431.005 750.031 364.034C594.274 349.534 472.887 332.851 368.104 317.825C59.6493 264.796 187.777 181.03 -332.619 199.258C-866.032 231.509 -973.525 548.218 -1362.89 689.395C-1497.46 730.186 -1644.42 749.785 -1833.64 732.959C-2570.93 666.912 -2567.11 289.605 -3233.89 236.64" stroke="black" stroke-width="0.314942"/>
<path d="M2292.97 754.321C1343.29 786.078 1500.9 430.06 751.656 362.706C597.174 348.094 475.899 331.538 370.398 316.783C62.5493 265.411 181.005 185.437 -331.025 204.877C-858.288 238.674 -971.405 549.582 -1363.69 687.541C-1499.24 726.978 -1646.24 745.525 -1833.91 728.492C-2565.42 661.568 -2570.23 289.711 -3233.89 237.861" stroke="black" stroke-width="0.314942"/>
<path d="M2293.01 750.63C1350.96 780.506 1494.61 429.125 753.283 361.405C600.092 346.666 478.944 330.222 372.711 315.817C65.4674 266.102 174.25 189.937 -329.414 210.556C-850.543 245.914 -969.269 551.022 -1364.47 685.762C-1500.99 723.813 -1648.1 741.308 -1834.18 724.084C-2559.88 656.427 -2573.33 289.876 -3233.87 239.142" stroke="black" stroke-width="0.314942"/>
<path d="M2293.01 746.929C1358.59 774.909 1488.33 428.245 754.892 360.094C602.991 345.244 481.956 328.895 375.005 314.825C68.3833 266.783 167.462 194.347 -327.821 216.224C-842.799 253.144 -967.149 552.436 -1365.28 683.973C-1502.78 720.622 -1649.85 737.098 -1834.45 719.666C-2554.37 651.149 -2576.46 290.047 -3233.87 240.412" stroke="black" stroke-width="0.314942"/>
<path d="M2293.01 743.239C1366.22 769.339 1481.95 427.248 756.502 358.778C605.892 343.816 484.967 327.595 377.268 313.86C71.2513 267.459 160.658 198.815 -326.259 221.904C-835.023 260.385 -965.014 553.909 -1366.08 682.179C-1504.56 717.505 -1651.67 732.882 -1834.72 715.258C-2548.86 645.992 -2579.56 290.214 -3233.87 241.694" stroke="black" stroke-width="0.314942"/>
<path d="M2293.01 739.534C1373.84 763.77 1475.58 426.315 758.111 357.479C608.791 342.389 487.994 326.28 379.594 312.863C74.1987 268.136 153.918 203.252 -324.698 227.567C-827.407 267.61 -962.975 555.366 -1366.96 680.386C-1506.43 714.342 -1653.55 728.667 -1835.09 710.836C-2543.43 640.726 -2582.77 290.364 -3233.95 242.96" stroke="black" stroke-width="0.314942"/>
<path d="M2293.01 735.814C1381.47 758.122 1469.35 425.352 759.736 356.134C611.692 340.949 491.006 324.951 381.889 311.869C77.099 268.846 147.146 207.707 -323.025 233.234C-819.583 274.838 -960.775 556.794 -1367.67 678.595C-1508.13 711.164 -1655.28 724.437 -1835.28 706.416C-2537.83 635.54 -2585.78 290.533 -3233.87 244.228" stroke="black" stroke-width="0.314942"/>
<path d="M2293.01 732.14C1389.09 752.616 1463.02 424.434 761.346 354.85C614.592 339.537 494.033 323.65 384.183 310.919C79.9989 269.49 140.389 212.127 -321.432 238.928C-811.855 282.094 -958.656 558.266 -1368.47 676.816C-1509.9 708.031 -1657.1 720.253 -1835.56 702.024C-2532.32 630.32 -2588.93 290.698 -3233.87 245.525" stroke="black" stroke-width="0.314942"/>
<path d="M2293.01 728.436C1396.72 747.015 1456.71 423.487 762.955 353.52C617.492 338.095 497.045 322.336 386.477 309.924C82.9148 270.088 133.601 216.629 -319.838 244.593C-804.111 289.321 -956.537 559.708 -1369.26 675.024C-1511.68 704.869 -1658.92 716.023 -1835.83 697.603C-2526.81 625.118 -2592.06 290.866 -3233.87 246.792" stroke="black" stroke-width="0.314942"/>
<path d="M2293.01 724.733C1404.34 741.433 1450.39 422.541 764.565 352.208C620.392 336.656 500.056 321.009 388.772 308.946C85.8147 270.848 126.814 221.085 -318.245 250.261C-796.383 296.47 -954.418 561.153 -1370.06 673.234C-1513.47 701.693 -1660.73 711.811 -1836.11 693.184C-2521.28 619.886 -2595.18 291.02 -3233.87 248.062" stroke="black" stroke-width="0.314942"/>
<path d="M2293.01 721.034C1411.97 735.852 1444.08 421.598 766.19 350.882C623.292 335.235 503.084 319.699 391.066 307.955C88.7307 271.514 120.041 225.528 -316.652 255.93C-788.64 303.733 -952.283 562.584 -1370.86 671.431C-1515.26 698.519 -1662.55 707.601 -1836.39 688.751C-2515.78 614.673 -2598.3 291.177 -3233.82 249.333" stroke="black" stroke-width="0.314942"/>
<path d="M2293.01 717.335C1419.59 730.274 1437.77 420.656 767.799 349.573C626.191 333.798 506.111 318.374 393.345 306.965C91.6145 272.197 113.253 229.987 -315.059 261.601C-780.927 310.997 -950.18 564.032 -1371.67 669.644C-1517.04 695.377 -1664.37 703.377 -1836.68 684.335C-2510.28 609.444 -2601.52 291.334 -3233.89 250.59" stroke="black" stroke-width="0.314942"/>
<path d="M2293.01 713.655C1427.22 724.714 1431.44 419.733 769.409 348.268C629.092 332.334 509.123 317.085 395.656 306.01C94.499 272.883 106.498 234.466 -313.417 267.29C-773.135 318.28 -948.012 565.499 -1372.42 667.876C-1518.78 692.24 -1666.14 699.187 -1836.92 679.939C-2504.72 604.235 -2604.5 291.526 -3233.84 251.882" stroke="black" stroke-width="0.314942"/>
<path d="M2293.01 709.95C1434.84 719.128 1425.13 418.785 771.018 346.953C631.976 331.019 512.151 315.754 397.95 305.014C97.4471 273.56 99.7257 238.903 -311.855 272.955C-765.438 325.538 -945.925 566.941 -1373.25 666.067C-1520.59 689.06 -1668.03 694.956 -1837.22 675.517C-2499.24 599.032 -2607.66 291.677 -3233.87 253.148" stroke="black" stroke-width="0.314942"/>
<path d="M2293.01 706.241C1442.47 713.523 1418.82 417.832 772.643 345.634C634.876 329.509 515.162 314.435 400.245 304.03C100.347 274.233 92.9378 243.352 -310.261 278.535C-757.694 332.616 -943.805 568.283 -1374.04 664.143C-1522.38 685.766 -1669.8 690.61 -1837.49 670.963C-2493.73 593.65 -2610.78 291.729 -3233.87 254.283" stroke="black" stroke-width="0.314942"/>
<path d="M2293.01 702.558C1450.09 707.96 1412.5 416.906 774.253 344.325C637.776 328.088 518.174 313.126 402.539 303.056C103.263 274.916 86.1657 247.812 -308.668 284.301C-749.966 339.943 -941.686 569.826 -1374.84 662.499C-1524.16 682.752 -1671.62 686.528 -1837.78 666.69C-2488.21 588.613 -2613.9 291.997 -3233.87 255.699" stroke="black" stroke-width="0.314942"/>
<path d="M2293.01 698.907C1457.72 702.428 1406.19 416.011 775.862 343.064C640.676 326.7 521.201 311.849 404.818 302.113C106.163 275.646 79.3932 252.319 -307.075 290.003C-742.223 347.223 -939.552 571.322 -1375.64 660.744C-1525.93 679.642 -1673.42 682.367 -1838.05 662.338C-2482.7 583.416 -2617.03 292.234 -3233.89 257.035" stroke="black" stroke-width="0.314942"/>
<path d="M2293.01 695.165C1465.34 696.758 1399.88 415.025 777.472 341.696C643.624 325.236 524.213 310.497 407.113 301.096C109.063 276.27 72.6217 256.735 -305.481 295.63C-734.494 354.412 -937.432 572.726 -1376.44 658.93C-1527.71 676.458 -1675.23 678.051 -1838.34 657.879C-2477.19 578.208 -2620.15 292.348 -3233.87 258.265" stroke="black" stroke-width="0.314942"/>
<path d="M2293.01 691.468C1472.97 691.229 1393.55 414.085 779.097 340.39C646.476 323.802 527.241 309.174 409.423 300.108C111.995 276.955 65.8653 261.181 -303.856 301.303C-726.734 361.646 -935.297 574.16 -1377.22 657.13C-1529.48 673.271 -1677.03 673.893 -1838.59 653.449C-2471.66 572.917 -2623.26 292.491 -3233.85 259.523" stroke="black" stroke-width="0.314942"/>
<path d="M2293.01 687.753C1480.58 685.618 1387.24 413.127 780.706 339.049C649.376 322.35 530.252 307.85 411.701 299.118C114.879 277.606 59.0772 265.656 -302.279 306.957C-719.022 368.862 -933.193 575.592 -1378.03 655.311C-1531.28 670.098 -1678.87 669.652 -1838.89 648.937C-2466.16 567.673 -2626.38 292.553 -3233.87 260.7" stroke="black" stroke-width="0.314942"/>
<path d="M2293.01 684.05C1488.22 680.051 1380.93 412.197 782.315 337.752C652.276 320.941 533.279 306.537 413.996 298.14C117.779 278.301 52.2893 270.079 -300.685 312.64C-711.278 376.106 -931.074 577.052 -1378.83 653.536C-1533.05 666.953 -1680.68 665.455 -1839.17 644.613C-2460.6 562.472 -2629.5 292.817 -3233.87 262.064" stroke="black" stroke-width="0.314942"/>
<path d="M2293.01 680.354C1495.83 674.474 1374.61 411.257 783.925 336.43C655.176 319.508 536.291 305.231 416.29 297.152C120.695 278.971 45.5171 274.542 -299.156 318.313C-703.614 383.34 -929.018 578.502 -1379.69 651.752C-1534.9 663.782 -1682.55 661.312 -1839.5 640.2C-2455.2 557.342 -2632.69 292.977 -3233.93 263.34" stroke="black" stroke-width="0.314942"/>
<path d="M2293.01 676.598C1503.47 668.838 1368.3 410.257 785.55 335.064C658.076 318.014 539.319 303.849 418.585 296.121C123.595 279.597 38.7452 278.944 -297.498 323.926C-695.854 390.515 -926.899 579.877 -1380.42 649.892C-1536.57 660.568 -1684.3 656.967 -1839.72 635.711C-2449.62 551.976 -2635.75 293.125 -3233.87 264.539" stroke="black" stroke-width="0.314942"/>
<path d="M2293.01 672.971C1511.08 663.41 1361.97 409.387 787.223 333.827C661.04 316.666 542.394 302.612 420.944 295.203C126.575 280.336 32.0369 283.459 -295.841 329.668C-688.014 397.819 -924.637 581.429 -1381.15 648.177C-1538.34 657.483 -1686.05 652.814 -1839.93 631.367C-2444.04 546.82 -2638.81 293.307 -3233.81 265.884" stroke="black" stroke-width="0.314942"/>
<path d="M2293.01 669.263C1518.71 657.727 1355.66 408.436 788.816 332.494C663.923 315.221 545.405 301.279 423.221 294.252C129.458 281.042 25.2483 287.878 -294.249 335.362C-680.287 405.074 -922.535 582.868 -1381.97 646.398C-1540.14 654.365 -1687.9 648.629 -1840.23 626.974C-2438.55 541.631 -2641.95 293.503 -3233.82 267.18" stroke="black" stroke-width="0.314942"/>
<path d="M2293.01 665.577C1526.33 652.161 1349.35 407.443 790.409 331.198C666.807 313.798 548.4 299.983 425.516 293.243C132.326 281.69 18.4762 292.366 -292.655 341.045C-672.559 412.319 -920.463 584.329 -1382.76 644.624C-1541.91 651.189 -1689.7 644.417 -1840.5 622.571C-2433.03 536.415 -2645.07 293.673 -3233.82 268.465" stroke="black" stroke-width="0.314942"/>
<path d="M2293.01 661.879C1533.96 646.582 1343.02 406.565 792.003 329.874C669.692 312.346 551.396 298.659 427.778 292.253C135.242 282.374 11.6567 296.826 -291.093 346.684C-664.846 419.503 -918.327 585.697 -1383.59 642.806C-1543.73 648 -1691.53 640.176 -1840.81 618.124C-2427.55 531.171 -2648.22 293.799 -3233.85 269.706" stroke="black" stroke-width="0.314942"/>
<path d="M2293.01 658.192C1541.58 641.014 1336.71 405.634 793.596 328.576C672.496 310.953 554.392 297.362 430.042 291.291C138.111 283.069 4.8526 301.297 -289.532 352.366C-657.15 426.747 -916.24 587.189 -1384.42 641.014C-1545.55 644.855 -1693.38 635.963 -1841.13 613.719C-2422.07 525.954 -2651.36 293.967 -3233.89 270.99" stroke="black" stroke-width="0.314942"/>
<path d="M2293.01 654.478C1549.21 635.357 1330.4 404.677 795.19 327.237C675.428 309.502 557.387 296.022 432.32 290.286C141.011 283.721 -1.93517 305.726 -287.906 358.022C-649.374 433.964 -914.121 588.622 -1385.18 639.213C-1547.3 641.667 -1695.17 631.74 -1841.36 609.288C-2416.59 520.726 -2654.46 294.126 -3233.85 272.248" stroke="black" stroke-width="0.314942"/>
<path d="M2293.01 650.781C1556.85 629.827 1324.08 403.8 796.783 325.93C678.312 308.068 560.4 294.699 434.599 289.281C143.895 284.373 -8.72287 310.155 -286.376 363.662C-641.709 441.166 -912.017 590.039 -1386.06 637.396C-1549.15 638.479 -1697.05 627.485 -1841.78 604.842C-2411.14 515.467 -2657.71 294.253 -3233.98 273.49" stroke="black" stroke-width="0.314942"/>
<path d="M2293.01 647.083C1564.46 624.249 1317.83 402.795 798.376 324.606C681.196 306.648 563.395 293.391 436.878 288.324C146.779 285.137 -15.5108 314.631 -284.799 369.365C-633.981 448.431 -909.914 591.504 -1386.87 635.626C-1551 635.355 -1698.88 623.309 -1842 600.459C-2405.58 510.288 -2660.78 294.522 -3233.95 274.796" stroke="black" stroke-width="0.314942"/>
<path d="M2293.01 643.4C1572.08 618.686 1311.46 401.869 800.065 323.313C684.16 305.228 566.486 292.082 439.236 287.35C149.759 285.756 -22.2355 319.107 -283.126 374.988C-626.174 455.615 -907.747 592.904 -1387.61 633.791C-1552.65 632.198 -1700.62 619.036 -1842.21 595.995C-2400 505.011 -2663.84 294.552 -3233.89 276.021" stroke="black" stroke-width="0.314942"/>
<path d="M2293.01 639.7C1579.71 613.105 1305.08 400.925 801.675 321.987C687.06 303.79 569.498 290.772 441.562 286.374C152.691 286.374 -28.9757 323.565 -281.501 380.721C-618.414 462.91 -905.58 594.415 -1388.37 632.067C-1554.41 629.04 -1702.4 614.89 -1842.5 591.642C-2394.49 499.861 -2666.96 294.772 -3233.89 277.355" stroke="black" stroke-width="0.314942"/>
<path d="M2293.01 636.009C1587.34 607.535 1298.82 399.991 803.284 320.687C689.96 302.378 572.525 289.456 443.824 285.392C155.575 287.129 -35.7957 328.017 -279.94 386.399C-610.702 470.15 -903.493 595.855 -1389.2 630.272C-1556.22 625.891 -1704.25 610.673 -1842.77 587.25C-2388.98 494.656 -2670.09 294.969 -3233.82 278.652" stroke="black" stroke-width="0.314942"/>
<path d="M2293.01 632.285C1594.96 602.01 1292.51 399.041 804.894 319.369C686.234 299.573 566.366 287.861 446.119 284.314C158.475 287.708 -42.5517 332.388 -278.346 391.982C-602.974 477.293 -901.374 597.214 -1390 628.397C-1557.99 622.645 -1706.07 606.376 -1843.05 582.714C-2383.46 489.324 -2673.23 295.022 -3233.89 279.805" stroke="black" stroke-width="0.314942"/>
<path d="M2293.01 628.587C1602.59 596.352 1286.19 398.098 806.519 318.045C688.117 298.071 568.449 286.5 448.413 283.42C161.375 288.471 -49.3237 336.911 -276.753 397.716C-595.23 484.605 -899.238 598.742 -1390.79 626.691C-1559.78 619.568 -1707.88 602.232 -1843.32 578.378C-2377.95 484.191 -2676.32 295.259 -3233.89 281.157" stroke="black" stroke-width="0.314942"/>
<path d="M2293.01 624.891C1451.78 582.856 1145.55 298.717 450.708 282.433C-244.119 298.717 -550.359 582.856 -1391.59 624.891C-2232.82 582.856 -2539.04 298.717 -3233.89 282.433" stroke="black" stroke-width="0.314942"/>
<path d="M2292.36 624.268C1457.4 582.839 1152.73 297.92 463.237 281.874C170.733 288.63 -52.3619 346.838 -278.197 409.603C-501.627 471.746 -722.236 538.096 -1009.99 582.218C-1123.76 599.57 -1247.19 614.086 -1384.92 622.053C-1522.42 616.397 -1645.94 604.287 -1759.97 586.998C-2048.87 542.876 -2269.5 466.934 -2491.83 404.854C-2716.5 342.089 -2939.58 293.41 -3233.24 286.654" stroke="black" stroke-width="0.314942"/>
<path d="M2291.67 623.623C1463.1 582.784 1159.88 297.1 475.764 281.293C182.941 287.938 -39.7875 350.161 -268.029 411.953C-493.897 473.141 -714.187 533.786 -1002.31 577.271C-1116.83 594.384 -1240.41 610.032 -1378.28 619.226C-1515.68 614.78 -1639.47 603.913 -1754.52 586.815C-2044.92 543.315 -2265.22 463.612 -2488.86 402.425C-2714.85 340.568 -2937.58 297.402 -3232.64 290.758" stroke="black" stroke-width="0.314942"/>
<path d="M2291.09 622.984C1468.76 582.734 1167.14 296.333 488.36 280.701C195.17 287.266 -27.1281 353.473 -257.776 414.453C-486.081 474.748 -706.021 529.609 -994.542 572.472C-1109.83 589.315 -1233.55 606.11 -1371.56 616.467C-1508.87 613.28 -1632.88 603.624 -1748.98 586.766C-2040.89 543.903 -2260.85 460.455 -2485.81 400.16C-2713.09 339.18 -2935.46 301.559 -3231.94 294.994" stroke="black" stroke-width="0.314942"/>
<path d="M2290.48 622.412C1474.44 582.752 1174.35 295.554 500.942 280.193C207.481 286.663 -14.4976 356.869 -247.551 416.941C-478.295 476.36 -697.916 525.437 -986.819 567.662C-1102.84 584.266 -1226.71 602.208 -1364.86 613.728C-1502.07 611.705 -1626.39 603.339 -1743.49 586.736C-2036.9 544.494 -2256.57 457.302 -2482.83 397.883C-2711.39 337.811 -2933.37 305.72 -3231.31 299.251" stroke="black" stroke-width="0.314942"/>
<path d="M2289.8 621.712C1480.05 582.641 1181.51 294.678 513.436 279.557C219.673 285.93 -1.94024 360.136 -237.4 419.316C-470.597 477.842 -689.932 521.135 -979.154 562.724C-1095.94 579.072 -1219.95 598.161 -1358.23 610.829C-1495.36 610.032 -1619.93 602.862 -1738.05 586.545C-2032.96 544.941 -2252.25 454.005 -2479.85 395.462C-2709.7 336.299 -2931.32 309.72 -3230.69 303.362" stroke="black" stroke-width="0.314942"/>
<path d="M2289.15 621.084C1485.68 582.587 1188.68 293.875 525.98 278.977C231.882 285.239 10.6516 363.428 -227.214 421.731C-462.85 479.381 -681.785 516.89 -971.453 557.857C-1089 573.967 -1213.16 594.203 -1351.58 608.034C-1488.61 608.448 -1613.44 602.568 -1732.58 586.459C-2028.96 545.476 -2247.96 450.795 -2476.87 393.145C-2708.01 334.874 -2929.26 313.825 -3230.06 307.563" stroke="black" stroke-width="0.314942"/>
<path d="M2288.52 620.444C1491.36 582.584 1195.88 293.059 538.494 278.384C244.094 284.566 23.2136 366.787 -217.042 424.166C-455.115 480.924 -673.717 512.649 -963.767 552.978C-1082.06 568.912 -1206.37 590.232 -1344.93 605.226C-1481.87 606.82 -1606.97 602.199 -1727.13 586.344C-2025.1 545.999 -2243.67 447.573 -2473.92 390.8C-2706.33 333.437 -2927.2 317.917 -3229.45 311.734" stroke="black" stroke-width="0.314942"/>
<path d="M2287.87 619.809C1496.99 582.507 1203.07 292.249 551.041 277.812C256.258 283.883 35.8086 370.103 -206.869 426.59C-447.365 482.456 -665.631 508.412 -956.08 548.12C-1075.12 563.736 -1199.57 586.267 -1338.26 602.408C-1475.11 605.26 -1600.48 601.851 -1721.66 586.251C-2021.09 546.543 -2239.37 444.341 -2470.93 388.476C-2704.64 331.989 -2925.13 321.998 -3228.81 315.927" stroke="black" stroke-width="0.314942"/>
<path d="M2287.22 619.241C1502.65 582.592 1210.26 291.522 563.618 277.309C268.58 283.284 48.4488 373.503 -196.635 429.098C-439.568 484.071 -657.501 504.243 -948.332 543.314C-1068.13 558.691 -1192.73 582.353 -1331.57 599.673C-1468.31 603.721 -1593.97 601.825 -1716.14 586.209C-2017.15 547.744 -2235.02 441.208 -2467.9 386.203C-2702.9 330.624 -2923.03 326.163 -3228.13 320.187" stroke="black" stroke-width="0.314942"/>
<path d="M2286.55 618.546C1508.28 582.423 1217.37 290.651 576.127 276.661C280.786 282.557 61.0209 376.776 -186.469 431.462C-431.856 485.559 -649.437 499.979 -940.651 538.397C-1061.21 553.518 -1185.94 578.328 -1324.92 596.811C-1461.57 602.069 -1587.5 601.432 -1710.7 586.04C-2013.21 548.26 -2230.75 437.852 -2464.93 383.819C-2701.22 329.132 -2920.97 330.2 -3227.53 324.32" stroke="black" stroke-width="0.314942"/>
<path d="M2285.96 617.892C1513.98 582.359 1224.66 289.838 588.725 276.071C293.05 281.855 73.6682 380.09 -176.228 433.82C-424.053 487.024 -641.316 495.629 -932.912 533.441C-1054.22 548.323 -1179.1 574.28 -1318.2 593.991C-1454.77 600.476 -1580.97 601.097 -1705.18 585.944C-2009.2 548.833 -2226.39 434.696 -2461.91 381.476C-2699.47 327.682 -2918.86 334.279 -3226.85 328.495" stroke="black" stroke-width="0.314942"/>
<path d="M2285.31 617.257C1519.62 582.329 1231.85 289.012 601.256 275.5C305.278 281.189 86.2617 383.406 -166.041 436.308C-416.303 488.636 -633.232 491.456 -925.21 528.726C-1047.27 543.354 -1172.3 570.458 -1311.55 591.252C-1448.03 598.948 -1574.47 600.813 -1699.71 585.899C-2005.25 549.473 -2222.1 431.544 -2458.93 379.216C-2697.78 326.314 -2916.8 338.44 -3226.22 332.752" stroke="black" stroke-width="0.314942"/>
<path d="M2284.73 616.631C1525.34 582.293 1239.09 288.227 613.868 274.938C317.492 280.53 98.9222 386.748 -155.754 438.757C-408.455 490.193 -625.049 487.229 -917.409 523.782C-1040.23 538.123 -1165.41 566.422 -1304.79 588.364C-1441.17 597.287 -1567.89 600.441 -1694.14 585.734C-2001.19 549.978 -2217.69 428.24 -2455.79 376.805C-2695.94 324.811 -2914.57 342.467 -3225.42 336.874" stroke="black" stroke-width="0.314942"/>
<path d="M2284.08 616.058C1530.98 582.309 1246.27 287.494 626.396 274.412C329.781 279.909 111.514 390.142 -145.601 441.243C-400.739 491.787 -616.998 483.055 -909.742 518.986C-1033.31 533.104 -1158.63 562.518 -1298.15 585.623C-1434.45 595.757 -1561.43 600.171 -1688.7 585.623C-1997.25 550.568 -2213.43 425.022 -2452.91 374.479C-2694.33 323.378 -2912.59 346.546 -3224.89 341.017" stroke="black" stroke-width="0.314942"/>
<path d="M2283.43 615.354C1536.63 582.195 1253.46 286.615 639.021 273.772C342.071 279.174 124.17 393.407 -135.382 443.615C-392.974 493.266 -608.883 478.671 -902.024 514.044C-1026.31 527.923 -1151.81 558.485 -1291.47 582.753C-1427.66 594.098 -1554.91 599.771 -1683.2 585.526C-1993.26 551.108 -2209.03 421.801 -2449.89 372.135C-2692.6 321.926 -2910.5 350.639 -3224.29 345.238" stroke="black" stroke-width="0.314942"/>
<path d="M2282.78 614.718C1542.29 582.149 1260.65 285.804 651.486 273.2C354.233 278.506 136.699 396.722 -125.211 446.039C-385.242 494.813 -600.816 474.513 -894.34 509.186C-1019.42 522.81 -1145.03 554.503 -1284.82 579.934C-1420.93 592.49 -1548.44 599.421 -1677.76 585.415C-1989.32 551.667 -2204.82 418.584 -2446.92 369.809C-2690.92 320.413 -2908.44 354.736 -3223.62 349.43" stroke="black" stroke-width="0.314942"/>
<path d="M2282.14 614.074C1547.94 582.11 1267.84 285.001 664.033 272.62C366.461 277.815 149.358 400.094 -115.023 448.47C-377.491 496.352 -592.73 470.268 -886.637 504.24C-1012.52 517.625 -1138.24 550.449 -1278.16 577.059C-1414.17 590.826 -1541.95 599.016 -1672.29 585.249C-1985.36 552.154 -2200.51 415.295 -2443.95 367.397C-2689.23 318.989 -2906.38 358.761 -3222.99 353.55" stroke="black" stroke-width="0.314942"/>
<path d="M2281.49 613.446C1553.58 582.071 1275.02 284.197 676.562 272.039C378.592 277.154 161.887 403.385 -104.836 450.901C-369.742 497.907 -584.662 466.038 -878.951 499.436C-1005.53 512.582 -1131.43 546.57 -1271.49 574.327C-1407.43 589.305 -1535.46 598.754 -1666.82 585.21C-1981.39 552.784 -2196.22 412.149 -2440.97 365.143C-2687.53 317.627 -2904.32 362.912 -3222.36 357.813" stroke="black" stroke-width="0.314942"/>
<path d="M2280.86 612.866C1559.24 582.081 1282.23 283.442 689.124 271.523C390.915 276.543 174.449 406.773 -94.6324 453.396C-361.977 499.51 -576.562 461.858 -871.234 494.634C-998.564 507.525 -1124.59 542.66 -1264.81 571.565C-1400.63 587.77 -1528.93 598.478 -1661.32 585.172C-1977.4 553.4 -2191.92 408.972 -2437.95 362.858C-2685.81 316.235 -2902.21 367.065 -3221.7 362.046" stroke="black" stroke-width="0.314942"/>
<path d="M2280.21 612.155C1564.89 581.96 1289.4 282.572 701.652 270.876C403.125 275.784 187.088 410.029 -84.4624 455.713C-354.244 500.95 -568.48 457.513 -863.534 489.653C-991.629 502.305 -1117.83 538.587 -1258.16 568.655C-1393.9 586.071 -1522.46 598.021 -1655.86 584.955C-1973.45 553.836 -2187.6 405.647 -2435.05 360.426C-2684.19 314.695 -2900.23 371.054 -3221.16 366.131" stroke="black" stroke-width="0.314942"/>
<path d="M2279.59 611.526C1570.52 581.92 1296.61 281.768 714.217 270.295C415.387 275.075 199.717 413.352 -74.2394 458.191C-346.459 502.52 -560.36 453.315 -855.796 484.833C-984.656 497.23 -1110.98 534.659 -1251.46 565.874C-1387.11 584.518 -1515.97 597.743 -1650.36 584.9C-1969.45 554.434 -2183.26 402.469 -2431.98 358.124C-2682.4 313.301 -2898.07 375.174 -3220.42 370.362" stroke="black" stroke-width="0.314942"/>
<path d="M2278.94 610.883C1576.25 581.867 1303.77 280.949 726.777 269.716C427.613 274.496 212.309 416.677 -64.0379 460.608C-338.696 504.06 -552.262 449.071 -848.097 479.952C-977.69 492.11 -1104.18 530.67 -1244.86 563.065C-1380.41 582.903 -1509.49 597.387 -1644.95 584.783C-1965.53 554.97 -2179.02 399.245 -2429.04 355.792C-2680.8 311.862 -2896.04 379.263 -3219.84 374.547" stroke="black" stroke-width="0.314942"/>
<path d="M2278.3 610.255C1581.88 581.844 1310.99 280.162 739.305 269.151C439.838 273.772 224.902 420.016 -53.8511 463.055C-330.947 505.615 -544.179 444.842 -840.396 475.101C-970.754 486.988 -1097.38 526.712 -1238.13 560.269C-1373.57 581.318 -1502.94 597.046 -1639.42 584.681C-1961.51 555.521 -2174.65 396.035 -2425.99 353.459C-2679 310.437 -2893.92 383.368 -3219.15 378.731" stroke="black" stroke-width="0.314942"/>
<path d="M2277.65 609.679C1587.52 581.857 1318.18 279.41 751.851 268.687C452.064 273.212 237.494 423.455 -43.6647 465.585C-323.214 507.269 -536.032 440.712 -832.695 470.366C-963.802 482.014 -1090.59 522.949 -1231.46 557.59C-1366.9 579.898 -1496.45 596.836 -1633.95 584.678C-1957.54 556.156 -2170.36 392.91 -2423.02 351.226C-2677.3 309.08 -2891.86 387.54 -3218.52 383.094" stroke="black" stroke-width="0.314942"/>
<path d="M2276.91 608.967C1593.08 581.735 1325.28 278.523 764.296 267.975C464.27 272.42 250.083 426.647 -33.5462 467.853C-315.582 508.645 -528.081 436.304 -825.062 465.304C-956.934 476.697 -1083.85 518.715 -1224.88 554.535C-1360.16 578.022 -1490.03 596.251 -1628.54 584.364C-1953.6 556.495 -2166.12 389.473 -2420.11 348.681C-2675.68 307.443 -2889.85 391.433 -3217.97 386.923" stroke="black" stroke-width="0.314942"/>
<path d="M2276.35 608.342C1598.81 581.7 1332.55 277.74 776.939 267.351C476.516 271.685 262.695 429.879 -23.2761 470.273C-307.702 510.108 -519.93 432.031 -817.294 460.425C-949.914 471.579 -1077.02 514.745 -1218.13 551.776C-1353.32 576.474 -1483.46 595.946 -1622.99 584.314C-1949.64 557.082 -2161.74 386.299 -2417.04 346.4C-2673.9 306.055 -2887.71 395.573 -3217.26 391.239" stroke="black" stroke-width="0.314942"/>
<path d="M2275.74 607.695C1604.49 581.642 1339.76 276.916 789.488 266.83C488.746 271.069 275.307 433.311 -13.0703 472.764C-299.886 511.787 -511.811 427.877 -809.573 455.619C-942.943 466.518 -1070.16 510.831 -1211.45 549.009C-1346.56 574.934 -1476.95 595.649 -1617.5 584.256C-1945.62 557.661 -2157.42 383.134 -2414.05 344.111C-2672.19 304.658 -2885.63 399.705 -3216.61 395.467" stroke="black" stroke-width="0.314942"/>
<path d="M2275.14 607.055C1610.19 581.561 1346.99 276.102 802.084 266.238C501.023 270.397 287.951 436.639 -2.83266 475.184C-292.134 513.314 -503.693 423.636 -801.822 450.741C-935.956 461.401 -1063.3 506.845 -1204.75 546.202C-1339.75 573.291 -1470.41 595.312 -1612 584.158C-1941.6 558.201 -2153.07 379.913 -2411.02 341.782C-2670.44 303.222 -2883.5 403.798 -3215.92 399.655" stroke="black" stroke-width="0.314942"/>
<path d="M2274.46 606.488C1615.81 581.631 1354.16 275.376 814.594 265.735C513.214 269.783 300.525 440.024 7.33534 477.66C-284.42 514.899 -495.628 419.437 -794.156 445.903C-929.023 456.324 -1056.53 502.916 -1198.1 543.421C-1333.02 571.768 -1463.93 595 -1606.55 584.085C-1937.66 558.765 -2148.79 376.733 -2408.04 339.479C-2668.75 301.826 -2881.44 407.996 -3215.3 403.885" stroke="black" stroke-width="0.314942"/>
<path d="M2273.76 605.801C1621.41 581.533 1361.28 274.513 827.073 265.111C525.391 269.063 313.052 443.304 17.4721 480.064C-276.721 516.426 -487.642 415.18 -786.504 441.025C-922.136 451.191 -1049.79 498.93 -1191.49 540.598C-1326.31 570.156 -1457.49 594.631 -1601.12 583.971C-1933.74 559.289 -2144.48 373.496 -2405.12 337.134C-2667.12 300.374 -2879.45 412.025 -3214.73 408.041" stroke="black" stroke-width="0.314942"/>
<path d="M2273.16 605.148C1627.11 581.47 1368.53 273.716 839.671 264.522C537.654 268.379 325.697 446.619 27.6958 482.487C-268.919 517.956 -479.459 410.926 -778.751 436.134C-915.148 446.061 -1042.94 494.947 -1184.79 537.778C-1319.51 568.547 -1450.89 594.265 -1595.6 583.844C-1929.73 559.799 -2140.19 370.326 -2402.1 334.776C-2665.36 298.908 -2877.32 416.041 -3214.06 412.217" stroke="black" stroke-width="0.314942"/>
<path d="M2272.54 604.511C1632.79 581.423 1375.74 272.889 852.233 263.934C549.913 267.694 338.323 449.949 37.9154 484.909C-261.138 519.502 -471.342 406.688 -771.017 431.275C-908.162 440.947 -1036.1 490.98 -1178.09 534.959C-1312.72 566.954 -1444.43 593.915 -1590.1 583.749C-1925.72 560.326 -2135.86 367.044 -2399.08 332.451C-2663.59 297.395 -2875.22 420.089 -3213.4 416.408" stroke="black" stroke-width="0.314942"/>
<path d="M2271.9 603.869C1638.43 581.385 1382.93 272.071 864.777 263.354C562.138 267.019 350.915 453.274 48.1012 487.342C-253.422 521.042 -463.275 402.524 -763.316 426.425C-901.211 435.842 -1029.29 486.975 -1171.41 532.18C-1305.96 565.387 -1437.92 593.591 -1584.61 583.664C-1921.75 560.878 -2131.54 363.772 -2396.08 330.135C-2661.93 296.067 -2873.15 424.29 -3212.76 420.625" stroke="black" stroke-width="0.314942"/>
<path d="M2271.21 603.292C1644.04 581.382 1390.05 271.302 877.273 262.825C574.315 266.394 363.474 456.633 58.2543 489.808C-245.691 522.617 -455.225 398.25 -755.665 421.578C-894.292 430.74 -1022.55 483.084 -1164.81 529.373C-1299.24 563.807 -1431.47 593.253 -1579.21 583.549C-1917.83 561.369 -2127.35 360.598 -2393.16 327.789C-2660.28 294.614 -2871.19 428.35 -3212.18 424.781" stroke="black" stroke-width="0.314942"/>
<path d="M2270.51 602.621C1649.64 581.301 1397.19 270.473 889.767 262.219C586.491 265.676 376.016 459.931 68.3905 492.213C-237.992 524.082 -447.193 393.979 -748.015 416.669C-887.424 425.592 -1015.81 479.067 -1158.19 526.615C-1292.55 562.244 -1425.03 592.933 -1573.79 583.516C-1913.81 561.878 -2122.98 357.378 -2390.24 325.446C-2658.65 293.163 -2869.13 432.444 -3211.6 429.018" stroke="black" stroke-width="0.314942"/>
<path d="M2269.95 601.981C1655.38 581.266 1404.48 269.657 902.397 261.626C598.803 265.004 388.711 463.258 78.6788 494.632C-230.142 525.672 -439.008 389.737 -740.228 411.774C-880.45 420.442 -1008.9 475.065 -1151.43 523.696C-1285.7 560.536 -1418.44 592.468 -1568.22 583.306C-1909.85 562.368 -2118.65 354.124 -2387.14 323.084C-2656.84 291.694 -2866.95 436.504 -3210.94 433.126" stroke="black" stroke-width="0.314942"/>
<path d="M2269.34 601.345C1661.06 581.204 1411.69 268.846 914.928 261.054C611.015 264.336 401.272 466.605 88.8501 497.071C-222.409 527.219 -430.939 385.532 -732.542 406.931C-873.449 415.361 -1002.12 471.13 -1144.78 520.909C-1278.96 558.976 -1411.96 592.151 -1562.76 583.227C-1905.89 562.927 -2114.36 350.923 -2384.19 320.775C-2655.16 290.293 -2864.89 440.616 -3210.25 437.35" stroke="black" stroke-width="0.314942"/>
<path d="M2268.69 600.71C1666.71 581.175 1418.88 268.051 927.505 260.482C623.273 263.669 413.913 469.906 99.0852 499.496C-214.612 528.767 -422.808 381.264 -724.714 402.074C-866.385 410.248 -995.197 467.165 -1138 518.107C-1272.09 557.385 -1405.34 591.803 -1557.16 583.118C-1901.81 563.44 -2109.94 347.706 -2381.07 318.451C-2653.34 288.861 -2862.7 444.714 -3209.49 441.527" stroke="black" stroke-width="0.314942"/>
<path d="M2268.04 600.119C1672.35 581.173 1426.06 267.285 940.049 259.939C635.498 263.031 426.505 473.283 109.271 501.98C-206.88 530.359 -414.725 377.072 -717.093 397.245C-859.513 405.212 -988.468 463.244 -1131.38 515.349C-1265.37 555.838 -1398.9 591.483 -1551.74 583.069C-1897.88 563.948 -2105.68 344.534 -2378.14 316.155C-2651.7 287.474 -2860.69 448.855 -3208.92 445.764" stroke="black" stroke-width="0.314942"/>
<path d="M2267.39 599.446C1678 581.09 1433.25 266.421 952.58 259.33C647.727 262.326 439.1 476.577 119.46 504.366C-199.129 531.869 -406.657 372.798 -709.407 392.333C-852.575 400.029 -981.674 459.257 -1124.75 512.493C-1258.59 554.209 -1392.44 591.096 -1546.32 582.922C-1893.94 564.486 -2101.42 341.28 -2375.18 313.793C-2650.03 285.988 -2858.65 452.899 -3208.32 449.919" stroke="black" stroke-width="0.314942"/>
<path d="M2266.78 598.802C1683.68 581.035 1440.46 265.634 965.143 258.75C659.971 261.634 451.727 479.901 129.681 506.798C-191.346 533.392 -398.539 368.553 -701.671 387.467C-845.605 394.908 -974.847 455.251 -1118.06 509.682C-1251.91 552.593 -1385.92 590.723 -1540.81 582.82C-1889.95 564.989 -2097.08 338.054 -2372.18 311.444C-2648.31 284.547 -2856.58 456.987 -3207.64 454.103" stroke="black" stroke-width="0.314942"/>
<path d="M2266.11 598.154C1689.29 580.977 1447.62 264.811 977.671 258.166C672.18 260.955 464.302 483.205 139.834 509.209C-183.631 534.927 -390.473 364.304 -693.988 382.58C-838.67 389.783 -968.056 451.273 -1111.46 506.867C-1245.18 551.005 -1379.49 590.378 -1535.41 582.714C-1886.04 565.505 -2092.85 334.841 -2369.26 309.108C-2646.68 283.119 -2854.56 461.088 -3207.08 458.284" stroke="black" stroke-width="0.314942"/>
<path d="M2265.45 597.518C1695 580.93 1454.81 263.999 990.199 257.577C684.389 260.286 476.894 486.536 150.02 511.648C-175.867 536.474 -382.39 360.066 -686.304 377.801C-831.735 384.732 -961.264 447.385 -1104.75 504.127C-1238.38 549.476 -1372.96 590.076 -1529.89 582.683C-1882.04 566.064 -2088.5 331.671 -2366.23 306.846C-2644.94 281.733 -2852.43 465.232 -3206.41 462.539" stroke="black" stroke-width="0.314942"/>
<path d="M2264.88 596.929C1700.68 580.994 1462.07 263.25 1002.89 257.052C696.765 259.649 489.637 489.914 160.356 514.118C-167.984 538.02 -374.156 355.876 -678.452 372.894C-824.632 379.586 -954.321 443.386 -1097.95 501.291C-1231.48 547.851 -1366.32 589.694 -1524.27 582.556C-1877.92 566.622 -2084.06 328.437 -2363.11 304.488C-2643.09 280.284 -2850.22 469.311 -3205.63 466.714" stroke="black" stroke-width="0.314942"/>
<path d="M2264.23 596.238C1706.33 580.845 1469.26 262.384 1015.36 256.425C708.912 258.926 502.15 493.191 170.479 516.503C-160.299 539.56 -366.138 351.584 -670.848 367.98C-817.793 374.354 -947.625 439.365 -1091.38 498.418C-1224.82 546.22 -1359.92 589.242 -1518.9 582.391C-1874.04 566.998 -2079.78 325.149 -2360.22 302.092C-2641.5 278.78 -2848.26 473.337 -3205.1 470.835" stroke="black" stroke-width="0.314942"/>
<path d="M2263.58 595.604C1711.97 580.801 1476.43 261.575 1027.9 255.854C721.137 258.261 514.741 496.461 180.665 518.928C-152.551 541.109 -358.055 347.349 -663.115 363.108C-810.826 369.306 -940.785 435.401 -1084.69 495.617C-1218.04 544.614 -1353.4 588.912 -1513.4 582.283C-1870.05 567.496 -2075.52 321.934 -2357.21 299.753C-2639.77 277.35 -2846.15 477.436 -3204.45 475.03" stroke="black" stroke-width="0.314942"/>
<path d="M2262.97 594.984C1717.67 580.77 1483.66 260.732 1040.47 255.282C733.397 257.593 527.384 499.856 190.885 521.384C-144.769 542.656 -349.954 343.128 -655.397 358.265C-803.84 364.209 -933.958 431.451 -1078 492.83C-1211.25 543.022 -1346.88 588.578 -1507.91 582.205C-1866.05 568.023 -2071.18 318.732 -2354.21 297.444C-2638.04 275.917 -2844.06 481.532 -3203.79 479.222" stroke="black" stroke-width="0.314942"/>
<path d="M2262.29 594.331C1723.26 580.708 1490.8 259.968 1052.98 254.693C745.573 256.908 539.894 503.171 201.037 523.79C-137.071 544.186 -341.906 338.954 -647.731 353.374C-796.939 359.078 -927.2 427.452 -1071.37 489.994C-1204.54 541.414 -1340.42 588.196 -1502.47 582.078C-1862.12 568.502 -2066.93 315.498 -2351.26 295.087C-2636.38 274.468 -2842.03 485.612 -3203.18 483.397" stroke="black" stroke-width="0.314942"/>
<path d="M2261.71 593.742C1728.96 580.724 1498.05 259.203 1065.57 254.168C757.869 256.287 552.589 506.55 211.294 526.276C-129.252 545.78 -333.751 334.684 -639.959 348.562C-789.916 354.012 -920.401 423.533 -1064.64 487.19C-1197.72 539.773 -1333.85 587.83 -1496.93 581.983C-1858.08 569.012 -2062.6 312.264 -2348.2 292.761C-2634.62 273.034 -2839.88 489.707 -3202.48 487.588" stroke="black" stroke-width="0.314942"/>
<path d="M2261.03 593.046C1734.59 580.617 1505.22 258.348 1078.09 253.52C770.061 255.543 565.163 509.821 221.462 528.64C-121.522 547.267 -325.686 330.386 -632.276 343.628C-782.998 348.838 -913.547 419.506 -1058.01 484.358C-1190.98 538.216 -1327.37 587.453 -1491.42 581.86C-1854.06 569.495 -2058.21 309.034 -2345.17 290.407C-2632.88 271.589 -2837.78 493.776 -3201.81 491.752" stroke="black" stroke-width="0.314942"/>
<path d="M2260.34 592.415C1740.2 580.576 1512.36 257.542 1090.6 253.017C782.253 254.945 577.722 513.206 231.615 531.148C-113.807 548.883 -317.637 326.218 -624.626 338.822C-776.096 343.794 -906.789 415.609 -1051.38 481.625C-1184.27 536.693 -1320.92 587.157 -1486.05 581.835C-1850.21 570.06 -2054 305.886 -2342.3 288.151C-2631.28 270.209 -2835.82 497.941 -3201.28 496.013" stroke="black" stroke-width="0.314942"/>
<path d="M2259.73 591.783C1745.88 580.534 1519.58 256.735 1103.16 252.385C794.498 254.217 590.332 516.478 241.835 533.512C-106.025 550.37 -309.488 321.922 -616.891 333.904C-769.111 338.684 -899.962 411.583 -1044.68 478.762C-1177.47 535.042 -1314.39 586.732 -1480.54 581.665C-1846.2 570.511 -2049.68 302.609 -2339.28 285.751C-2629.56 268.717 -2833.71 501.978 -3200.62 500.146" stroke="black" stroke-width="0.314942"/>
<path d="M2259.1 591.145C1751.54 580.485 1526.78 255.937 1115.72 251.746C806.74 253.467 602.942 519.744 252.087 535.885C-98.211 551.819 -301.357 317.586 -609.11 328.963C-762.078 333.425 -893.089 407.551 -1037.93 475.877C-1170.65 533.383 -1307.82 586.317 -1475.01 581.489C-1842.16 570.924 -2045.29 299.326 -2336.22 283.36C-2627.81 267.218 -2831.57 505.992 -3199.85 504.255" stroke="black" stroke-width="0.314942"/>
<path d="M2258.48 590.56C1757.23 580.505 1534 255.176 1128.29 251.272C819.003 252.866 615.571 523.19 262.246 538.423C-90.4901 553.497 -293.317 313.496 -601.389 324.219C-755.106 328.426 -886.245 403.683 -1031.25 473.188C-1163.85 531.89 -1301.3 586.05 -1469.44 581.541C-1838.09 571.566 -2040.9 296.318 -2333.15 281.165C-2625.99 265.932 -2829.41 510.235 -3199.19 508.594" stroke="black" stroke-width="0.314942"/>
<path d="M2257.8 589.854C1762.84 580.389 1541.14 254.296 1140.81 250.631C831.195 252.224 628.145 526.436 272.398 540.793C-82.7755 554.974 -285.299 309.189 -593.786 319.307C-748.268 323.275 -879.55 399.679 -1024.68 470.347C-1157.2 530.26 -1294.91 585.329 -1464.13 581.361C-1834.26 571.275 -2036.76 292.952 -2330.33 278.771C-2624.46 264.43 -2827.48 514.262 -3198.74 512.717" stroke="black" stroke-width="0.314942"/>
<path d="M2257.15 589.229C1768.5 580.354 1548.33 253.511 1153.34 250.069C843.421 251.503 640.738 529.778 282.6 543.259C-75.0112 556.564 -277.169 304.995 -586.069 314.46C-741.3 318.172 -872.741 395.724 -1018 467.54C-1150.43 528.679 -1288.4 584.99 -1458.64 581.278C-1830.29 571.813 -2032.45 289.682 -2327.33 276.441C-2622.75 262.992 -2825.42 518.354 -3198.07 516.92" stroke="black" stroke-width="0.314942"/>
<path d="M2256.54 588.591C1774.18 580.306 1555.56 252.698 1165.92 249.479C855.667 250.834 653.367 533.108 292.823 545.665C-67.2898 558.077 -269.049 300.724 -578.332 309.552C-734.328 313.025 -865.897 391.724 -1011.31 464.703C-1143.57 527.053 -1281.87 584.608 -1453.14 581.134C-1826.3 572.323 -2028.11 286.495 -2324.32 274.082C-2621.02 261.526 -2823.32 522.417 -3197.41 521.062" stroke="black" stroke-width="0.314942"/>
<path d="M2255.89 587.965C1779.82 580.269 1562.75 251.897 1178.45 248.917C867.893 250.176 665.958 536.45 303.009 548.098C-59.4948 559.634 -260.967 296.497 -570.648 304.703C-727.393 307.89 -859.058 387.768 -1004.65 461.894C-1136.9 525.471 -1275.39 584.268 -1447.62 581.05C-1822.28 572.86 -2023.77 283.287 -2321.29 271.751C-2619.26 260.103 -2821.2 526.523 -3196.73 525.264" stroke="black" stroke-width="0.314942"/>
<path d="M2255.24 587.377C1785.47 580.286 1569.93 251.165 1191 248.393C880.103 249.556 678.551 539.829 313.195 550.585C-51.698 561.229 -252.883 292.307 -562.947 299.876C-720.441 302.856 -852.313 383.849 -997.951 459.218C-1130.11 524.007 -1268.83 584.047 -1442.18 581.067C-1818.34 573.514 -2019.48 280.197 -2318.32 269.553C-2617.6 258.798 -2819.15 530.747 -3196.12 529.584" stroke="black" stroke-width="0.314942"/>
<path d="M2254.59 586.685C1791.11 580.184 1577.1 250.282 1203.52 247.765C892.329 248.816 691.127 543.089 323.381 552.953C-43.9978 562.704 -244.8 288.014 -555.246 294.962C-713.505 297.687 -845.52 379.827 -991.334 456.28C-1123.4 522.263 -1262.41 583.562 -1436.74 580.837C-1814.38 573.906 -2015.15 276.829 -2315.39 267.077C-2615.94 257.214 -2817.12 534.772 -3195.53 533.64" stroke="black" stroke-width="0.314942"/>
<path d="M2254.01 586.045C1796.83 580.133 1584.36 249.466 1216.12 247.172C904.606 248.144 703.787 546.416 333.636 555.387C-36.1816 564.247 -236.666 283.773 -547.526 290.083C-706.518 292.569 -838.677 375.841 -984.634 453.456C-1116.6 520.667 -1255.88 583.209 -1431.24 580.723C-1810.47 574.429 -2010.88 273.607 -2312.4 264.747C-2614.24 255.776 -2815.04 538.816 -3194.9 537.812" stroke="black" stroke-width="0.314942"/>
<path d="M2253.36 585.41C1802.43 580.088 1591.54 248.672 1228.67 246.601C916.835 247.477 716.383 549.749 343.825 557.812C-28.43 565.779 -228.58 279.537 -539.791 285.209C-699.547 287.44 -831.849 371.875 -977.981 450.654C-1109.87 519.075 -1249.4 582.908 -1425.73 580.629C-1806.42 574.957 -2006.55 270.39 -2309.35 262.407C-2612.48 254.345 -2812.87 542.849 -3194.19 542.005" stroke="black" stroke-width="0.314942"/>
<path d="M2252.71 584.781C1808.15 580 1598.73 247.852 1241.21 246.02C929.076 246.784 728.99 553.072 354.026 560.242C-20.6824 567.333 -220.482 275.291 -532.075 280.342C-692.596 282.318 -825.041 367.98 -971.269 447.842C-1103.05 517.475 -1242.85 582.502 -1420.25 580.51C-1802.43 575.475 -2002.23 267.164 -2306.35 260.073C-2610.69 252.903 -2810.84 546.889 -3193.55 546.188" stroke="black" stroke-width="0.314942"/>
<path d="M2252.03 584.184C1813.75 580.025 1605.89 247.08 1253.72 245.486C941.253 246.156 741.55 556.427 364.164 562.705C-12.9669 568.919 -212.431 271.109 -524.407 275.507C-685.677 277.243 -818.266 363.973 -964.638 445.062C-1096.33 515.922 -1236.4 582.097 -1414.81 580.503C-1798.51 576.089 -1998 264.034 -2303.41 257.82C-2609.11 251.542 -2808.8 551.136 -3192.96 550.467" stroke="black" stroke-width="0.314942"/>
<path d="M2251.43 583.525C1819.44 579.972 1613.11 246.261 1266.3 244.875C953.529 245.465 754.192 559.735 374.4 565.153C-5.39169 570.57 -204.298 266.88 -516.672 270.656C-678.691 272.138 -811.455 360.016 -957.922 442.268C-1089.52 514.338 -1229.86 581.836 -1409.31 580.354C-1794.48 576.578 -1993.61 260.777 -2300.38 255.455C-2607.14 250.133 -2806.69 555.194 -3192.28 554.604" stroke="black" stroke-width="0.314942"/>
<path d="M2250.79 582.891C1825.09 579.927 1620.3 245.452 1278.8 244.305C965.691 244.783 766.737 562.989 384.539 567.546C2.34089 572.103 -196.264 262.613 -509.02 265.752C-671.788 266.995 -804.68 356.02 -951.322 439.435C-1082.83 512.732 -1223.41 581.473 -1403.85 580.23C-1790.54 577.043 -1989.34 257.53 -2297.41 253.1C-2605.48 248.671 -2804.63 559.244 -3191.69 558.703" stroke="black" stroke-width="0.314942"/>
<path d="M2250.11 582.23C1830.7 579.856 1627.44 244.616 1291.34 243.708C977.934 244.09 779.346 566.376 394.742 569.961C10.1376 573.546 -188.163 258.352 -501.303 260.837C-664.835 261.825 -797.87 351.981 -944.64 436.56C-1076.05 511.052 -1216.91 581.051 -1398.4 580.063C-1786.59 577.546 -1985.05 254.241 -2294.46 250.703C-2603.87 247.166 -2802.59 563.284 -3191.06 562.902" stroke="black" stroke-width="0.314942"/>
<path d="M2249.49 581.597C1836.38 579.813 1634.67 243.792 1303.92 243.123C990.178 243.426 791.957 569.695 404.962 572.388C17.9683 575.081 -180.142 254.118 -493.584 255.934C-657.865 256.683 -791.028 347.986 -937.941 433.728C-1069.27 509.432 -1210.42 580.674 -1392.89 579.925C-1782.6 578.044 -1980.72 250.995 -2291.44 248.334C-2602.16 245.673 -2800.49 567.352 -3190.38 567.018" stroke="black" stroke-width="0.314942"/>
<path d="M2248.84 580.992C1842.02 579.797 1641.84 243.043 1316.45 242.581C1002.4 242.772 804.548 573.056 415.148 574.857C25.7478 576.658 -171.98 249.879 -485.884 251.154C-650.915 251.648 -784.236 344.098 -931.293 430.987C-1062.51 507.918 -1203.9 580.402 -1387.43 579.908C-1778.64 578.65 -1976.42 247.855 -2288.46 246.087C-2600.5 244.318 -2798.43 571.511 -3189.76 571.32" stroke="black" stroke-width="0.314942"/>
<path d="M2248.3 580.318C1847.79 579.728 1649.17 242.194 1329.1 241.971C1014.75 242.066 817.26 576.35 425.454 577.242C33.6479 578.135 -163.777 245.636 -478.016 246.257C-643.811 246.512 -777.276 340.109 -924.46 428.162C-1055.6 506.24 -1197.24 580.031 -1381.77 579.776C-1774.49 579.154 -1971.94 244.616 -2285.24 243.723C-2598.54 242.831 -2796.11 575.585 -3188.89 575.49" stroke="black" stroke-width="0.314942"/>
<path d="M2247.61 579.683C1853.4 579.683 1656.29 241.399 1341.61 241.399C1026.92 241.399 829.816 579.683 435.604 579.683C41.3913 579.683 -155.731 241.399 -470.399 241.399C-785.068 241.399 -982.19 579.683 -1376.42 579.683C-1770.65 579.683 -1967.74 241.399 -2282.42 241.399C-2597.11 241.399 -2794.21 579.683 -3188.43 579.683" stroke="black" stroke-width="0.314942"/>
</mask>
<g mask="url(#mask1)">
<rect width="4980" height="884" transform="matrix(-1 0 0 1 3428 34)" fill="url(#paint0_linear)"/>
</g>
</g>
<defs>
<linearGradient id="paint0_linear" x1="-2273.29" y1="238.9" x2="5077.17" y2="238.9" gradientUnits="userSpaceOnUse">
<stop stop-color="#5A50DC"/>
<stop offset="0.135417" stop-color="#E3524A"/>
<stop offset="0.213542" stop-color="#E88B39"/>
<stop offset="0.302083" stop-color="#EBB12D"/>
<stop offset="0.395833" stop-color="#8733E4"/>
<stop offset="0.572917" stop-color="#3844DC"/>
<stop offset="0.703125" stop-color="#369BDC"/>
<stop offset="0.848958" stop-color="#2AC8D6"/>
<stop offset="1" stop-color="#35E19E"/>
</linearGradient>
</defs>
</svg>
