<svg width="27" height="27" viewBox="0 0 27 27" fill="none" xmlns="http://www.w3.org/2000/svg">
<path opacity="0.1" d="M26.1 0.939994C22.98 0.339995 20.48 0.959995 18.6 2.8C16.76 4.64 15.84 7.4 15.84 11.08V26.14H26.1V13.48H20.64C20.52 11.24 20.72 9.28 21.24 7.6C21.76 5.92 23.2 5.16 25.56 5.32L26.1 0.939994ZM10.86 0.939994C7.74 0.339995 5.24 0.959995 3.36 2.8C1.52 4.64 0.600001 7.4 0.600001 11.08V26.14H10.86V13.48H5.4C5.28 11.24 5.48 9.28 6 7.6C6.52 5.92 7.96 5.16 10.32 5.32L10.86 0.939994Z" fill="#06222E"/>
</svg>
