<svg width="1916" height="520" viewBox="0 0 1916 520" fill="none" xmlns="http://www.w3.org/2000/svg">
<mask id="mask0" mask-type="alpha" maskUnits="userSpaceOnUse" x="0" y="0" width="1916" height="520">
<rect width="1916" height="520" fill="#C4C4C4"/>
</mask>
<g mask="url(#mask0)">
<mask id="mask1" mask-type="alpha" maskUnits="userSpaceOnUse" x="-483" y="25" width="2882" height="471">
<path d="M-481.981 488.426C155.894 540.286 -187.724 267.741 351.429 239.652C890.581 211.563 389.398 42.1083 915.258 26.3659C1441.12 10.6235 1173.48 508.178 1663.25 488.426C2153.01 468.673 1993.58 173.901 2397.94 126.06" stroke="black" stroke-width="0.574153"/>
<path d="M-481.981 486.497C151.917 537.37 -184.436 267.249 350.59 238.961C454.527 233.456 519.912 222.737 561.668 208.979C733.248 151.946 494.962 41.3758 914.427 29.3199C1301.16 18.4596 1257.7 285.998 1408.88 416.919C1461.57 462.427 1537.58 491.338 1663.39 486.124C2150.17 465.956 1995.21 173.991 2397.94 126.722" stroke="black" stroke-width="0.574153"/>
<path d="M-481.981 484.576C147.948 534.468 -181.14 266.764 349.751 238.285C453.015 232.714 518.301 222.061 560.472 208.469C731.729 152.3 498.491 43.6968 913.597 32.2802C1297.14 22.2336 1256.6 286.758 1409.28 415.985C1462.48 460.821 1538.51 489.142 1663.52 483.828C2147.28 463.237 1996.81 174.078 2397.92 127.391" stroke="black" stroke-width="0.574153"/>
<path d="M-481.981 482.648C143.971 531.561 -177.852 266.273 348.904 237.594C451.504 231.965 516.765 221.37 559.277 207.961C730.218 152.655 501.986 46.0535 912.767 35.2597C1293.1 26.0268 1255.5 287.537 1409.72 415.078C1463.43 459.159 1539.47 486.974 1663.68 481.552C2144.42 460.545 1998.45 174.185 2397.94 128.078" stroke="black" stroke-width="0.574153"/>
<path d="M-481.981 480.69C140.002 528.623 -174.564 265.751 348.066 236.882C449.993 231.194 515.188 220.658 558.081 207.415C728.707 152.972 505.556 48.3133 911.936 38.1588C1289.07 29.7396 1254.39 288.236 1410.11 414.092C1464.34 457.458 1540.4 484.717 1663.8 479.195C2141.54 457.765 2000.07 174.211 2397.92 128.686" stroke="black" stroke-width="0.574153"/>
<path d="M-481.981 478.796C136.025 525.749 -171.268 265.294 347.227 236.225C448.523 230.479 513.619 220.001 556.885 206.932C727.187 153.362 509.085 50.6623 911.106 41.1471C1285.04 33.5416 1253.29 289.015 1410.55 413.186C1465.28 455.847 1541.36 482.557 1663.97 476.928C2138.68 455.074 2001.71 174.335 2397.95 129.383" stroke="black" stroke-width="0.574153"/>
<path d="M-481.981 476.867C132.056 522.832 -167.98 264.801 346.389 235.542C446.979 229.73 512.049 219.318 555.69 206.423C725.676 153.708 512.614 52.9848 910.276 44.1006C1281.01 37.3088 1252.18 289.769 1410.94 412.254C1466.19 454.2 1542.29 480.338 1664.09 474.625C2135.79 452.357 2003.32 174.415 2397.92 130.053" stroke="black" stroke-width="0.574153"/>
<path d="M-481.981 474.936C128.079 519.922 -164.692 264.298 345.542 234.856C445.468 228.978 510.472 218.624 554.494 205.904C724.157 154.06 516.143 55.2962 909.437 47.0514C1276.98 41.0732 1251.07 290.519 1411.38 411.31C1467.14 452.543 1543.25 478.158 1664.26 472.321C2132.94 449.629 2004.96 174.493 2397.94 130.704" stroke="black" stroke-width="0.574153"/>
<path d="M-481.981 473.011C124.135 517.017 -161.396 263.777 344.703 234.168C443.957 228.24 508.902 217.944 553.298 205.39C722.679 154.41 519.671 57.5975 908.607 50.0086C1272.95 44.8442 1249.97 291.276 1411.77 410.357C1468.04 450.876 1544.17 475.95 1664.38 469.997C2130.04 446.89 2006.57 174.553 2397.92 131.344" stroke="black" stroke-width="0.574153"/>
<path d="M-481.981 471.095C120.133 514.121 -158.107 263.331 343.865 233.498C442.446 227.503 507.325 217.266 552.103 204.894C721.134 154.778 523.2 59.9578 907.777 52.9501C1268.96 48.5994 1248.86 292.009 1412.21 409.438C1469 449.242 1545.14 473.753 1664.54 467.708C2127.19 444.177 2008.22 174.655 2397.94 132.019" stroke="black" stroke-width="0.574153"/>
<path d="M-481.981 469.162C116.156 511.208 -154.845 262.833 343.026 232.801C440.934 226.748 505.764 216.577 550.907 204.372C719.615 155.119 526.737 62.2668 906.946 55.9234C1264.89 52.3863 1247.76 292.782 1412.6 408.517C1469.89 447.615 1546.06 471.569 1664.67 465.417C2124.29 441.48 2009.81 174.755 2397.92 132.701" stroke="black" stroke-width="0.574153"/>
<path d="M-481.981 467.238C112.187 508.305 -151.523 262.346 342.179 232.123C439.423 226.013 504.178 215.891 549.712 203.893C718.104 155.504 530.266 64.6196 906.116 58.9072C1260.85 56.1755 1246.65 293.565 1413.04 407.631C1470.85 446.008 1547.03 469.422 1664.83 463.162C2121.45 438.801 2011.46 174.883 2397.94 133.401" stroke="black" stroke-width="0.574153"/>
<path d="M-481.981 465.304C108.21 505.391 -148.202 261.881 341.34 231.435C437.912 225.265 502.609 215.21 548.524 203.354C716.584 155.836 533.795 66.9114 905.286 61.83C1256.82 59.9203 1245.55 294.313 1413.43 406.66C1471.75 444.322 1547.93 467.18 1664.95 460.82C2118.54 436.044 2013.06 174.925 2397.91 134.024" stroke="black" stroke-width="0.574153"/>
<path d="M-481.981 463.382C104.208 502.489 -144.947 261.371 340.502 230.758C436.401 224.522 501.031 214.526 547.328 202.843C715.048 156.189 537.365 69.2404 904.447 64.79C1252.79 63.694 1244.44 295.048 1413.88 405.726C1472.71 442.683 1548.92 464.993 1665.12 458.525C2115.7 433.325 2014.72 175.02 2397.94 134.709" stroke="black" stroke-width="0.574153"/>
<path d="M-481.981 461.451C100.264 499.578 -141.651 260.876 339.663 230.064C434.89 223.778 499.462 213.832 546.133 202.332C713.562 156.541 540.852 71.5603 903.617 67.741C1248.76 67.4587 1243.33 295.798 1414.29 404.791C1473.63 441.025 1549.87 462.796 1665.26 456.22C2112.79 430.605 2016.35 175.098 2397.94 135.352" stroke="black" stroke-width="0.574153"/>
<path d="M-481.981 459.522C96.2951 496.669 -138.363 260.384 338.825 229.38C433.379 223.029 497.884 213.148 544.937 201.815C712.043 156.887 544.389 73.8744 902.795 70.6943C1244.74 71.2257 1242.24 296.535 1414.71 403.859C1474.57 439.379 1550.82 460.593 1665.42 453.917C2109.96 427.879 2017.98 175.179 2397.95 136.014" stroke="black" stroke-width="0.574153"/>
<path d="M-481.981 457.6C92.3181 493.768 -135.066 259.898 337.978 228.696C431.868 222.286 496.315 212.464 543.742 201.296C710.532 157.232 547.893 76.1872 901.956 73.6382C1240.72 74.9833 1241.12 297.295 1415.12 402.909C1475.49 437.723 1551.75 458.389 1665.55 451.605C2107.08 425.144 2019.6 175.25 2397.94 136.666" stroke="black" stroke-width="0.574153"/>
<path d="M-481.981 455.665C88.3493 490.845 -131.779 259.4 337.139 228.006C430.356 221.53 494.746 211.774 542.546 200.789C709.02 157.614 551.447 78.5112 901.126 76.6016C1236.67 78.7603 1240.02 298.05 1415.54 401.986C1476.42 436.087 1552.7 456.196 1665.7 449.313C2104.21 422.436 2021.22 175.315 2397.94 137.338" stroke="black" stroke-width="0.574153"/>
<path d="M-481.981 453.746C84.3721 487.946 -128.491 258.917 336.301 227.333C428.845 220.798 493.168 211.092 541.384 200.282C707.534 157.937 555.009 80.8436 900.329 79.5649C1232.66 82.5374 1238.95 298.813 1415.98 401.064C1477.38 434.442 1553.68 454.012 1665.9 447.021C2101.39 419.72 2022.93 175.439 2398 138.009" stroke="black" stroke-width="0.574153"/>
<path d="M-481.981 451.818C80.4034 485.029 -125.195 258.425 335.462 226.641C427.334 220.049 491.599 210.409 540.155 199.773C705.99 158.258 558.505 83.1662 899.466 82.5186C1228.6 86.3047 1237.81 299.566 1416.37 400.123C1478.27 432.796 1554.59 451.809 1665.99 444.719C2098.46 417.003 2024.47 175.52 2397.94 138.671" stroke="black" stroke-width="0.574153"/>
<path d="M-481.981 449.893C76.4262 482.133 -121.907 257.937 334.615 225.962C425.831 219.32 490.021 209.722 538.959 199.26C704.47 158.658 562.033 85.5093 898.627 85.5093C1224.57 90.1091 1236.7 300.356 1416.78 399.228C1479.2 431.186 1555.53 449.652 1666.14 442.453C2095.59 414.315 2026.1 175.638 2397.94 139.395" stroke="black" stroke-width="0.574153"/>
<path d="M-481.981 447.963C72.4574 479.223 -118.618 257.443 333.777 225.269C424.32 218.56 488.452 209.037 537.763 198.749C702.992 159.003 565.57 87.8052 897.796 88.4279C1220.54 93.8414 1235.59 301.067 1417.2 398.261C1480.13 429.505 1556.48 447.415 1666.28 440.116C2092.72 411.562 2027.74 175.684 2397.95 139.998" stroke="black" stroke-width="0.574153"/>
<path d="M-481.981 446.041C68.5052 476.314 -115.322 256.958 332.938 224.593C422.809 217.818 486.875 208.352 536.568 198.239C701.448 159.365 569.099 90.1265 896.966 91.3886C1216.51 97.6158 1234.49 301.827 1417.61 397.328C1481.06 427.858 1557.42 445.228 1666.43 437.813C2089.88 408.844 2029.36 175.78 2397.92 140.667" stroke="black" stroke-width="0.574153"/>
<path d="M-481.981 444.155C64.5115 473.448 -112.034 256.508 332.099 223.944C421.298 217.111 485.305 207.712 535.372 197.765C699.929 159.754 572.628 92.4918 896.136 94.3848C1212.48 101.417 1233.39 302.623 1418.03 396.438C1481.96 426.254 1558.35 443.068 1666.57 435.553C2086.97 406.169 2030.98 175.903 2397.94 141.363" stroke="black" stroke-width="0.574153"/>
<path d="M-481.981 442.184C60.5344 470.497 -108.746 255.974 331.253 223.219C419.787 216.319 483.728 206.978 534.177 197.214C698.418 160.067 576.156 94.7721 895.306 97.2962C1208.44 105.142 1232.28 303.334 1418.44 395.464C1482.91 424.524 1559.32 440.831 1666.7 433.209C2084.09 403.401 2032.6 175.942 2397.93 141.983" stroke="black" stroke-width="0.574153"/>
<path d="M-481.981 440.262C56.5657 467.595 -105.45 255.488 330.414 222.533C418.276 215.584 482.159 206.301 533.006 196.703C696.923 160.427 579.711 97.0672 894.501 100.256C1204.44 108.916 1231.2 304.085 1418.88 394.529C1483.87 422.925 1560.28 438.634 1666.88 430.913C2081.25 400.69 2034.26 176.012 2397.97 142.65" stroke="black" stroke-width="0.574153"/>
<path d="M-481.981 438.338C52.5884 464.7 -102.162 255.009 329.575 221.864C416.756 214.848 480.581 205.623 531.786 196.207C695.354 160.787 583.214 99.4281 893.637 103.214C1200.38 112.688 1230.06 304.843 1419.27 393.602C1484.77 421.276 1561.2 436.445 1667 428.615C2078.35 397.969 2035.86 176.123 2397.94 143.318" stroke="black" stroke-width="0.574153"/>
<path d="M-481.981 436.406C48.6196 461.78 -98.8742 254.513 328.736 221.177C415.253 214.094 479.02 204.928 530.59 195.686C693.876 161.138 586.751 101.739 892.806 106.172C1196.35 116.46 1228.96 305.601 1419.69 392.674C1485.7 419.634 1562.15 434.247 1667.12 426.318C2075.45 395.248 2037.43 176.208 2397.91 144.017" stroke="black" stroke-width="0.574153"/>
<path d="M-481.981 434.477C44.6425 458.871 -95.578 254.02 327.889 220.485C413.742 213.352 477.442 204.244 529.394 195.169C692.356 161.484 590.28 104.061 891.976 109.125C1192.32 120.226 1227.86 306.354 1420.1 391.733C1486.63 417.987 1563.1 432.052 1667.29 424.015C2072.61 392.53 2039.11 176.288 2397.95 144.645" stroke="black" stroke-width="0.574153"/>
<path d="M-481.981 432.531C40.6737 455.946 -92.2898 253.511 327.051 219.785C412.231 212.586 475.865 203.536 528.198 194.643C690.845 161.822 593.792 106.366 891.146 112.062C1188.29 123.977 1226.75 307.082 1420.52 390.784C1487.56 416.316 1564.04 429.808 1667.43 421.696C2069.73 389.788 2040.74 176.352 2397.94 145.291" stroke="black" stroke-width="0.574153"/>
<path d="M-481.981 430.619C36.6966 453.037 -88.9937 253.036 326.212 219.11C410.72 211.853 474.296 202.869 527.003 194.143C689.326 162.185 597.337 108.697 890.316 115.032C1184.24 127.76 1225.65 307.852 1420.93 389.86C1488.49 414.678 1564.98 427.647 1667.58 419.402C2066.85 387.079 2042.37 176.449 2397.94 145.961" stroke="black" stroke-width="0.574153"/>
<path d="M-481.981 428.695C32.7278 450.15 -85.7055 252.548 325.374 218.432C409.234 211.117 472.718 202.183 525.807 193.639C687.815 162.544 600.866 111.024 889.477 117.991C1180.22 131.533 1224.53 308.61 1421.34 388.933C1489.42 413.011 1565.92 425.466 1667.71 417.113C2063.97 384.366 2043.99 176.543 2397.93 146.636" stroke="black" stroke-width="0.574153"/>
<path d="M-481.981 426.764C28.7506 447.239 -82.4176 252.053 324.527 217.737C407.698 210.364 471.149 201.497 524.628 193.119C686.32 162.888 604.42 113.336 888.672 120.933C1176.21 135.297 1223.45 309.36 1421.78 387.998C1490.35 411.396 1566.89 423.26 1667.89 414.808C2061.12 381.646 2045.63 176.621 2397.96 147.295" stroke="black" stroke-width="0.574153"/>
<path d="M-481.981 424.841C24.7818 444.328 -79.1215 251.567 323.688 217.06C406.186 209.587 469.571 200.811 523.416 192.607C684.784 163.248 607.932 115.664 887.816 123.892C1172.17 139.07 1222.33 310.111 1422.18 387.096C1491.27 409.78 1567.82 421.138 1668.01 412.544C2058.25 378.959 2047.24 176.74 2397.94 147.996" stroke="black" stroke-width="0.574153"/>
<path d="M-481.981 422.918C20.8047 441.425 -75.8334 251.047 322.85 216.374C404.684 208.901 468.002 200.133 522.221 192.104C683.298 163.6 611.461 117.992 886.986 126.851C1168.13 142.843 1221.22 310.87 1422.59 386.136C1492.2 408.106 1568.73 418.875 1668.15 410.215C2055.36 376.222 2048.87 176.81 2397.94 148.63" stroke="black" stroke-width="0.574153"/>
<path d="M-481.981 420.988C16.8359 438.516 -72.5452 250.587 322.011 215.689C403.173 208.134 466.425 199.44 521.025 191.611C681.754 163.978 614.989 120.33 886.156 129.828C1164.11 146.634 1220.12 311.663 1423.01 385.227C1493.13 406.483 1569.71 416.696 1668.3 407.928C2052.49 373.512 2050.5 176.906 2397.94 149.307" stroke="black" stroke-width="0.574153"/>
<path d="M-481.981 419.06C12.8754 435.607 -69.2489 250.094 321.164 214.998C401.662 207.384 464.855 198.757 519.829 191.069C680.243 164.3 618.518 122.627 885.325 132.757C1160.07 150.367 1219.01 312.375 1423.42 384.262C1494.06 404.812 1570.65 414.476 1668.44 405.601C2049.62 370.728 2052.12 176.962 2397.94 149.944" stroke="black" stroke-width="0.574153"/>
<path d="M-482 417.136C8.87916 432.704 -65.972 249.607 320.315 214.32C400.139 206.639 463.267 198.071 518.623 190.565C678.72 164.66 622.036 124.972 884.484 135.716C1156.03 154.14 1217.9 313.125 1423.83 383.335C1494.97 403.162 1571.62 412.279 1668.58 403.303C2046.73 368.049 2053.74 177.048 2397.93 150.611" stroke="black" stroke-width="0.574153"/>
<path d="M-482 415.208C4.90201 429.788 -62.7004 249.149 319.476 213.637C398.629 205.898 461.697 197.38 517.427 190.048C677.201 165.015 625.573 127.269 883.654 138.669C1152 157.907 1216.79 313.862 1424.25 382.403C1495.9 401.499 1572.53 410.085 1668.72 401.001C2043.86 365.299 2055.37 177.137 2397.93 151.273" stroke="black" stroke-width="0.574153"/>
<path d="M-482 413.285C0.924916 426.885 -59.3794 248.629 318.638 212.951C397.117 205.155 460.128 196.702 516.248 189.545C675.706 165.367 629.118 129.598 882.84 141.629C1147.95 161.68 1215.68 314.629 1424.67 381.468C1496.83 399.876 1573.48 407.888 1668.86 398.705C2040.99 362.612 2056.99 177.223 2397.93 151.941" stroke="black" stroke-width="0.574153"/>
<path d="M-482 411.355C-3.04375 423.984 -56.0579 248.144 317.799 212.275C395.607 204.412 458.551 196.018 515.036 189.027C674.171 165.72 632.631 131.91 882.027 144.581C1143.98 165.446 1214.62 315.389 1425.12 380.534C1497.8 398.228 1574.46 405.692 1669.06 396.401C2038.16 359.868 2058.66 177.303 2397.97 152.601" stroke="black" stroke-width="0.574153"/>
<path d="M-482 409.416C-7.02102 421.041 -52.8116 247.642 316.952 211.574C394.095 203.661 456.982 195.325 513.84 188.508C672.659 166.09 636.159 134.232 881.155 147.533C1139.9 169.212 1213.47 316.133 1425.5 379.601C1498.69 396.572 1575.37 403.488 1669.16 394.098C2035.24 357.166 2060.22 177.39 2397.93 153.262" stroke="black" stroke-width="0.574153"/>
<path d="M-482 407.502C-10.9898 418.171 -49.5156 247.163 316.113 210.904C392.584 202.925 455.404 194.647 512.645 188.013C671.148 166.425 639.68 136.535 880.325 150.5C1135.87 172.993 1212.37 316.9 1425.91 378.674C1499.61 394.939 1576.31 401.308 1669.3 391.809C2032.37 354.446 2061.87 177.476 2397.93 153.938" stroke="black" stroke-width="0.574153"/>
<path d="M-482 405.572C-14.967 415.253 -46.2274 246.67 315.275 210.211C391.073 202.174 453.835 193.962 511.449 187.494C669.629 166.737 643.217 138.881 879.494 153.452C1131.84 176.759 1211.26 317.652 1426.33 377.74C1500.54 393.292 1577.26 399.104 1669.45 389.505C2029.5 351.735 2063.5 177.564 2397.93 154.598" stroke="black" stroke-width="0.574153"/>
<path d="M-482 403.642C-18.9357 412.344 -42.9313 246.177 314.436 209.527C389.561 201.424 452.266 193.27 510.253 186.985C668.118 167.133 646.754 141.202 878.664 156.405C1127.81 180.484 1210.16 318.404 1426.74 376.807C1501.47 391.636 1578.2 396.909 1669.59 387.202C2026.61 349.009 2065.12 177.644 2397.93 155.259" stroke="black" stroke-width="0.574153"/>
<path d="M-482 401.714C-22.9129 409.436 -39.6433 245.685 313.589 208.837C388.05 200.683 450.688 192.588 509.058 186.468C666.598 167.48 650.283 143.517 877.834 159.359C1123.78 184.268 1209.05 319.15 1427.16 375.867C1502.4 389.982 1579.15 394.715 1669.74 384.892C2023.75 346.292 2066.75 177.725 2397.91 155.922" stroke="black" stroke-width="0.574153"/>
<path d="M-482 399.787C-26.8816 406.529 -36.3551 245.194 312.751 208.154C386.539 199.935 449.111 191.897 507.871 185.952C665.095 167.835 653.82 145.841 877.004 162.314C1119.76 188.053 1207.95 319.904 1427.58 374.936C1503.33 388.345 1580.1 392.513 1669.89 382.591C2020.89 343.567 2068.43 177.807 2397.94 156.577" stroke="black" stroke-width="0.574153"/>
<path d="M-482 397.869C-30.8588 403.631 -33.0591 244.712 311.912 207.474C385.028 199.171 447.541 191.225 506.666 185.454C663.592 168.192 657.34 148.174 876.148 165.278C1115.7 191.847 1206.82 320.668 1427.97 374.014C1504.23 386.71 1581.02 390.33 1670.01 380.3C2017.99 340.852 2069.98 177.907 2397.91 157.249" stroke="black" stroke-width="0.574153"/>
<path d="M-482 395.939C-34.8276 400.722 -29.771 244.219 311.074 206.79C383.525 198.487 445.963 190.533 505.471 184.936C662.056 168.546 660.869 150.487 875.334 168.231C1111.69 195.631 1205.73 321.42 1428.4 373.073C1505.18 385.054 1582.01 388.126 1670.17 377.997C2015.13 338.143 2071.62 177.987 2397.93 157.91" stroke="black" stroke-width="0.574153"/>
<path d="M-482 394.007C-38.8047 397.802 -26.483 243.724 310.227 206.103C382.014 197.7 444.394 189.846 504.275 184.424C660.545 168.897 664.406 152.806 874.504 171.139C1107.65 199.319 1204.63 322.12 1428.82 372.071C1506.11 383.338 1582.93 385.862 1670.31 375.624C2012.26 335.338 2073.25 178.014 2397.93 158.502" stroke="black" stroke-width="0.574153"/>
<path d="M-482 392.088C-42.7736 394.902 -23.187 243.24 309.388 205.42C380.503 196.96 442.825 189.163 503.08 183.916C659.026 169.253 667.935 155.129 873.674 174.143C1103.62 203.137 1203.53 322.924 1429.23 371.214C1507.04 381.767 1583.88 383.735 1670.46 373.398C2009.39 332.713 2074.88 178.153 2397.93 159.239" stroke="black" stroke-width="0.574153"/>
<path d="M-482 390.185C-46.7506 392.02 -19.8987 242.774 308.55 204.763C378.992 196.236 441.247 188.498 501.892 183.425C657.515 169.633 671.464 157.478 872.844 177.114C1099.59 206.93 1202.41 323.703 1429.65 370.299C1507.96 380.147 1584.81 381.566 1670.6 371.13C2006.51 330.005 2076.51 178.277 2397.94 159.936" stroke="black" stroke-width="0.574153"/>
<path d="M-482 388.234C-50.7195 389.064 -16.611 242.26 307.711 204.049C377.456 195.473 439.678 187.792 500.697 182.894C656.003 169.958 674.992 159.778 872.013 180.046C1095.56 210.675 1201.31 324.434 1430.06 369.353C1508.89 378.486 1585.76 379.317 1670.75 368.805C2003.64 327.29 2078.13 178.335 2397.93 160.575" stroke="black" stroke-width="0.574153"/>
<path d="M-482 386.308C-54.6965 386.184 -13.3147 241.77 306.864 203.369C375.97 194.726 438.101 187.103 499.493 182.379C654.476 170.315 678.513 162.095 871.166 183.002C1091.52 214.445 1200.2 325.182 1430.47 368.415C1509.81 376.826 1586.7 377.15 1670.88 366.497C2000.76 324.534 2079.75 178.41 2397.92 161.231" stroke="black" stroke-width="0.574153"/>
<path d="M-482 384.373C-58.6654 383.26 -10.0266 241.271 306.025 202.671C374.458 193.969 436.531 186.414 498.305 181.864C652.973 170.655 682.05 164.427 870.344 185.949C1087.5 218.206 1199.1 325.928 1430.89 367.468C1510.75 375.173 1587.65 374.941 1671.04 364.147C1997.89 321.802 2081.38 178.443 2397.93 161.845" stroke="black" stroke-width="0.574153"/>
<path d="M-482 382.444C-62.6425 380.36 -6.73844 240.787 305.187 201.996C372.947 193.236 434.954 185.73 497.11 181.355C651.462 171.017 685.587 166.733 869.514 188.91C1083.46 221.981 1198 326.69 1431.31 366.544C1511.67 373.535 1588.6 372.754 1671.18 361.894C1995 319.092 2083.01 178.581 2397.93 162.557" stroke="black" stroke-width="0.574153"/>
<path d="M-482 380.518C-66.6113 377.454 -3.4424 240.297 304.348 201.306C371.436 192.489 433.385 185.049 495.914 180.84C649.942 171.366 689.116 169.058 868.717 191.866C1079.47 225.75 1196.92 327.445 1431.76 365.614C1512.64 371.882 1589.57 370.595 1671.36 359.594C1992.18 316.419 2084.67 178.664 2397.96 163.221" stroke="black" stroke-width="0.574153"/>
<path d="M-482 378.56C-70.5885 374.517 -0.154433 239.776 303.501 200.595C369.925 191.71 431.807 184.329 494.718 180.302C648.431 171.692 692.644 171.352 867.854 194.791C1075.43 229.489 1195.82 328.161 1432.14 364.644C1513.51 370.207 1590.48 368.331 1671.47 357.255C1989.28 313.623 2086.26 178.741 2397.93 163.846" stroke="black" stroke-width="0.574153"/>
<path d="M-482 376.67C-74.5572 371.688 3.1421 239.322 302.63 199.95C368.381 191.007 430.205 183.684 493.49 179.823C646.879 172.077 696.14 173.704 866.99 197.783C1071.34 233.294 1194.64 328.969 1432.52 363.75C1514.43 368.599 1591.4 366.167 1671.58 354.991C1986.37 310.935 2087.86 178.835 2397.9 164.546" stroke="black" stroke-width="0.574153"/>
<path d="M-482 374.738C-78.5344 368.727 6.43002 238.827 301.799 199.256C366.878 190.255 428.635 182.99 492.302 179.328C645.376 172.445 699.677 176.007 866.16 200.75C1067.32 237.075 1193.55 329.72 1432.94 362.824C1515.37 366.975 1592.36 363.986 1671.74 352.703C1983.51 308.232 2089.49 178.938 2397.91 165.222" stroke="black" stroke-width="0.574153"/>
<path d="M-482 372.818C-82.5032 365.826 9.71798 238.31 300.969 198.58C365.375 189.513 427.074 182.314 491.107 178.802C643.881 172.783 703.206 178.346 865.329 203.711C1063.29 240.85 1192.47 330.481 1433.36 361.899C1516.29 365.32 1593.3 361.791 1671.88 350.408C1980.63 305.514 2091.12 179.026 2397.91 165.891" stroke="black" stroke-width="0.574153"/>
<path d="M-482 370.89C-86.4803 362.92 13.0143 237.852 300.139 197.89C363.872 188.757 425.514 181.625 489.928 178.287C642.362 173.139 706.76 180.67 864.516 206.65C1059.27 244.594 1191.35 331.194 1433.79 360.952C1517.24 363.659 1594.25 359.582 1672.04 348.091C1977.78 302.781 2092.76 179.092 2397.92 166.538" stroke="black" stroke-width="0.574153"/>
<path d="M-482 368.968C-90.4491 360.018 16.3023 237.367 299.309 197.213C362.411 188.03 423.952 180.948 488.749 177.785C640.867 173.5 710.305 182.999 863.702 209.61C1055.26 248.368 1190.27 331.97 1434.22 360.018C1518.18 362.019 1595.22 357.386 1672.2 345.795C1974.92 300.062 2094.4 179.179 2397.94 167.207" stroke="black" stroke-width="0.574153"/>
<path d="M-482 367.034C-94.4262 357.071 19.5902 236.869 298.478 196.516C360.883 187.275 422.392 180.251 487.562 177.262C639.356 173.841 713.842 185.307 862.855 212.558C1051.21 252.129 1189.16 332.718 1434.62 359.08C1519.1 360.359 1596.15 355.186 1672.33 343.487C1972.06 297.339 2096.01 179.263 2397.92 167.863" stroke="black" stroke-width="0.574153"/>
<path d="M-482 365.107C-98.4033 354.189 22.8865 236.411 297.648 195.835C359.381 186.527 420.822 179.561 486.374 176.738C637.853 174.181 717.379 187.615 862.058 215.496C1047.21 255.882 1188.07 333.456 1435.08 358.133C1520.06 358.697 1597.13 352.968 1672.54 341.17C1969.22 294.598 2097.7 179.329 2397.99 168.51" stroke="black" stroke-width="0.574153"/>
<path d="M-482 363.18C-102.372 351.282 26.1414 235.888 296.818 195.145C357.878 185.788 419.261 178.879 485.187 176.239C636.351 174.579 720.916 189.947 861.236 218.468C1043.19 259.667 1186.97 334.22 1435.5 357.211C1521.02 357.069 1598.08 350.792 1672.66 338.886C1966.33 291.899 2099.31 179.469 2397.97 169.19" stroke="black" stroke-width="0.574153"/>
<path d="M-482 361.262C-106.341 348.384 29.4624 235.405 295.938 194.472C356.333 185.048 417.65 178.198 483.958 175.732C634.798 174.902 724.42 192.28 860.364 221.398C1039.12 263.411 1185.84 334.949 1435.88 356.255C1521.89 355.425 1598.99 348.566 1672.77 336.56C1963.42 289.15 2100.9 179.485 2397.94 169.829" stroke="black" stroke-width="0.574153"/>
<path d="M-482 359.333C-110.318 345.475 32.7834 234.913 295.099 193.78C354.822 184.298 416.081 177.515 482.746 175.223C633.27 175.223 727.932 194.602 859.517 224.385C1035.08 267.211 1184.71 335.736 1436.28 355.356C1522.8 353.778 1599.92 346.405 1672.92 334.291C1960.55 286.466 2102.53 179.599 2397.94 170.523" stroke="black" stroke-width="0.574153"/>
<path d="M-482 357.41C-114.295 342.573 36.0466 234.427 294.26 193.103C353.311 183.563 414.504 176.829 481.567 174.712C631.767 175.617 731.486 196.922 858.704 227.344C1031.06 270.985 1183.62 336.487 1436.71 354.421C1523.75 352.138 1600.88 344.208 1673.06 332.003C1957.67 283.755 2104.16 179.702 2397.91 171.2" stroke="black" stroke-width="0.574153"/>
<path d="M-482 355.47C-118.264 339.694 39.3344 233.931 293.422 192.416C355.252 182.101 417.713 175.998 480.371 174.15C630.256 175.918 735.006 199.2 857.874 230.253C1027.03 274.707 1182.52 337.195 1437.13 353.444C1524.67 350.446 1601.83 341.969 1673.21 329.639C1954.8 280.975 2105.79 179.729 2397.94 171.8" stroke="black" stroke-width="0.574153"/>
<path d="M-482 353.543C-122.241 336.746 42.6307 233.44 292.575 191.726C354.271 181.318 416.628 175.289 479.176 173.684C628.745 176.316 738.535 201.557 857.043 233.241C1022.99 278.517 1181.41 337.991 1437.54 352.555C1525.6 348.843 1602.77 339.81 1673.35 327.38C1951.93 278.301 2107.4 179.853 2397.94 172.505" stroke="black" stroke-width="0.574153"/>
<path d="M-482 351.616C-43.6536 329.713 115.913 181.655 477.98 173.169C840.039 181.655 999.613 329.713 1437.96 351.616C1876.31 329.713 2035.87 181.655 2397.94 173.169" stroke="black" stroke-width="0.574153"/>
<path d="M-481.666 351.292C-46.5909 329.704 112.17 181.239 471.447 172.878C623.865 176.398 740.115 206.729 857.792 239.434C974.216 271.816 1089.17 306.389 1239.11 329.38C1298.4 338.422 1362.71 345.986 1434.48 350.138C1506.13 347.19 1570.49 340.88 1629.91 331.871C1780.45 308.88 1895.41 269.308 2011.26 236.96C2128.34 204.255 2244.58 178.889 2397.6 175.369" stroke="black" stroke-width="0.574153"/>
<path d="M-481.301 350.956C-49.5474 329.675 108.45 180.812 464.929 172.575C617.512 176.038 733.571 208.461 852.503 240.659C970.197 272.543 1084.99 304.144 1235.12 326.803C1294.79 335.72 1359.19 343.873 1431.03 348.664C1502.62 346.348 1567.13 340.685 1627.08 331.776C1778.4 309.109 1893.2 267.578 2009.73 235.694C2127.49 203.462 2243.55 180.969 2397.29 177.507" stroke="black" stroke-width="0.574153"/>
<path d="M-481.005 350.622C-52.5063 329.649 104.66 180.411 458.358 172.266C611.132 175.687 726.967 210.186 847.153 241.961C966.117 273.38 1080.72 301.967 1231.06 324.301C1291.14 333.078 1355.61 341.829 1427.52 347.226C1499.07 345.565 1563.69 340.534 1624.18 331.749C1776.29 309.414 1890.91 265.932 2008.13 234.513C2126.56 202.738 2242.43 183.135 2396.92 179.714" stroke="black" stroke-width="0.574153"/>
<path d="M-480.683 350.325C-55.4637 329.659 100.906 180.006 451.806 172.002C604.721 175.373 720.389 211.956 841.828 243.258C962.064 274.22 1076.5 299.793 1227.04 321.796C1287.5 330.448 1352.05 339.797 1424.03 345.8C1495.53 344.746 1560.31 340.387 1621.33 331.735C1774.22 309.724 1888.68 264.29 2006.58 233.328C2125.68 202.026 2241.35 185.304 2396.6 181.933" stroke="black" stroke-width="0.574153"/>
<path d="M-480.33 349.96C-58.3903 329.602 97.174 179.55 445.292 171.671C598.366 174.992 713.843 213.659 836.536 244.496C958.05 274.993 1072.34 297.552 1223.05 319.223C1283.9 327.742 1348.52 337.689 1420.57 344.289C1492.03 343.874 1556.94 340.138 1618.49 331.636C1772.16 309.957 1886.43 262.572 2005.03 232.067C2124.8 201.238 2240.28 187.388 2396.27 184.076" stroke="black" stroke-width="0.574153"/>
<path d="M-479.995 349.634C-61.3262 329.574 93.4327 179.132 438.753 171.369C592.001 174.632 707.279 215.375 831.225 245.755C954.01 275.796 1068.09 295.341 1219.03 316.688C1280.28 325.082 1344.98 335.627 1417.11 342.834C1488.51 343.049 1553.56 339.986 1615.64 331.591C1770.07 310.236 1884.19 260.9 2003.47 230.86C2123.91 200.496 2239.2 189.528 2395.94 186.265" stroke="black" stroke-width="0.574153"/>
<path d="M-479.661 349.299C-64.2802 329.571 89.6899 178.707 432.237 171.06C585.642 174.281 700.738 217.124 825.93 247.023C949.984 276.598 1063.89 293.13 1215.03 314.145C1276.67 322.447 1341.44 333.557 1413.65 341.37C1485 342.2 1550.19 339.792 1612.8 331.531C1768.07 310.508 1881.96 259.22 2001.94 229.637C2123.04 199.746 2238.13 191.659 2395.63 188.438" stroke="black" stroke-width="0.574153"/>
<path d="M-479.327 348.968C-67.2176 329.531 85.9388 178.284 425.696 170.762C579.301 173.925 694.172 218.852 820.626 248.286C945.943 277.397 1059.68 290.922 1211.02 311.613C1273.05 319.75 1337.9 331.49 1410.17 339.901C1481.48 341.387 1546.8 339.611 1609.95 331.482C1765.98 310.791 1879.72 257.536 2000.38 228.426C2122.16 198.992 2237.05 193.786 2395.29 190.622" stroke="black" stroke-width="0.574153"/>
<path d="M-478.991 348.672C-70.1701 329.575 82.1891 177.905 419.14 170.499C572.877 173.613 687.583 220.624 815.291 249.593C941.878 278.238 1055.44 288.75 1206.98 309.109C1269.4 317.121 1334.33 329.451 1406.68 338.476C1477.93 340.585 1543.41 339.597 1607.07 331.46C1763.92 311.417 1877.45 255.903 1998.79 227.241C2121.25 198.281 2235.95 195.956 2394.94 192.842" stroke="black" stroke-width="0.574153"/>
<path d="M-478.638 348.309C-73.0967 329.487 78.4904 177.451 412.626 170.161C566.522 173.233 681.036 222.329 809.998 250.824C937.864 279.013 1051.24 286.527 1202.99 306.546C1265.81 314.425 1330.8 327.353 1403.22 336.984C1474.43 339.724 1540.04 339.392 1604.24 331.371C1761.87 311.685 1875.23 254.154 1997.25 225.999C2120.38 197.503 2234.89 198.059 2394.63 194.995" stroke="black" stroke-width="0.574153"/>
<path d="M-478.329 347.97C-76.0674 329.454 74.6893 177.029 406.06 169.855C560.13 172.869 674.445 224.057 804.66 252.054C933.796 279.778 1047.01 284.261 1198.95 303.964C1262.16 311.719 1327.23 325.245 1399.72 335.516C1470.88 338.895 1536.64 339.219 1601.36 331.323C1759.78 311.985 1872.95 252.511 1995.68 224.779C2119.47 196.748 2233.78 200.186 2394.27 197.172" stroke="black" stroke-width="0.574153"/>
<path d="M-477.988 347.639C-79.0057 329.438 70.9457 176.598 399.535 169.557C553.763 172.521 667.887 225.784 799.356 253.35C929.762 280.617 1042.8 282.087 1194.94 301.507C1258.54 309.129 1323.7 323.253 1396.26 334.088C1467.37 338.098 1533.25 339.07 1598.52 331.298C1757.73 312.318 1870.72 250.868 1994.13 223.601C2118.59 196.035 2232.71 202.353 2393.95 199.389" stroke="black" stroke-width="0.574153"/>
<path d="M-477.692 347.312C-81.9895 329.419 67.1649 176.188 392.956 169.263C547.391 172.178 661.283 227.525 793.989 254.626C925.666 281.428 1038.53 279.883 1190.87 298.93C1254.87 306.403 1320.1 321.149 1392.72 332.582C1463.79 337.232 1529.82 338.876 1595.61 331.212C1755.6 312.581 1868.42 249.146 1992.49 222.344C2117.62 195.251 2231.55 204.451 2393.52 201.537" stroke="black" stroke-width="0.574153"/>
<path d="M-477.345 347.014C-84.9219 329.428 63.4353 175.807 386.437 168.99C540.997 171.855 654.731 229.295 788.707 255.922C921.654 282.259 1034.34 277.709 1186.88 296.432C1251.27 303.789 1316.58 319.116 1389.28 331.155C1460.3 336.436 1526.47 338.736 1592.78 331.155C1753.56 312.889 1866.21 247.47 1990.99 221.133C2116.79 194.505 2230.52 206.578 2393.25 203.697" stroke="black" stroke-width="0.574153"/>
<path d="M-477.011 346.647C-87.8677 329.369 59.6843 175.349 379.855 168.657C534.589 171.471 648.132 230.995 783.378 257.158C917.604 283.03 1030.11 275.425 1182.86 293.857C1247.62 301.089 1313.02 317.014 1385.79 329.66C1456.76 335.571 1523.06 338.527 1589.91 331.104C1751.48 313.17 1863.91 245.791 1989.42 219.911C2115.89 193.748 2229.43 208.71 2392.94 205.896" stroke="black" stroke-width="0.574153"/>
<path d="M-476.678 346.316C-90.823 329.344 55.9316 174.926 373.354 168.358C528.246 171.123 641.598 232.723 778.073 258.421C913.569 283.836 1025.9 273.258 1178.85 291.325C1244.03 298.424 1309.48 314.939 1382.32 328.19C1453.25 334.733 1519.69 338.345 1587.07 331.047C1749.42 313.461 1861.71 244.115 1987.86 218.699C2115.01 192.96 2228.35 210.845 2392.58 208.08" stroke="black" stroke-width="0.574153"/>
<path d="M-476.331 345.98C-93.7556 329.325 52.1938 174.508 366.826 168.056C521.884 170.763 635.012 234.48 772.774 259.688C909.541 284.638 1021.7 271.046 1174.85 288.748C1240.44 295.722 1305.95 312.827 1378.86 326.693C1449.73 333.866 1516.31 338.134 1584.23 330.96C1747.37 313.715 1859.47 242.401 1986.33 217.442C2114.13 192.218 2227.29 212.942 2392.27 210.227" stroke="black" stroke-width="0.574153"/>
<path d="M-475.997 345.654C-96.7014 329.305 48.4509 174.09 360.293 167.754C515.559 170.42 628.479 236.196 767.462 260.955C905.499 285.449 1017.49 268.843 1170.84 286.246C1236.8 293.096 1302.4 310.806 1375.38 325.27C1446.21 333.075 1512.93 337.998 1581.38 330.941C1745.29 314.044 1857.23 240.762 1984.77 216.269C2113.25 191.509 2226.21 215.106 2391.94 212.449" stroke="black" stroke-width="0.574153"/>
<path d="M-475.665 345.351C-99.6485 329.309 44.6984 173.695 353.751 167.485C509.141 170.1 621.937 237.96 762.149 262.255C901.456 286.284 1013.27 266.664 1166.82 283.743C1233.17 290.46 1298.84 308.768 1371.9 323.83C1442.68 332.274 1509.53 337.853 1578.51 330.92C1743.22 314.364 1855 239.106 1983.2 215.077C2112.35 190.783 2225.11 217.269 2391.6 214.654" stroke="black" stroke-width="0.574153"/>
<path d="M-475.329 344.98C-102.593 329.246 40.9571 173.242 347.22 167.147C502.776 169.705 615.347 239.657 756.846 263.462C897.424 287.034 1009.06 264.4 1162.8 281.147C1229.55 287.74 1295.31 306.645 1368.43 322.313C1439.17 331.388 1506.16 337.616 1575.67 330.807C1741.15 314.591 1852.75 237.374 1981.68 213.81C2111.51 189.981 2224.08 219.348 2391.31 216.783" stroke="black" stroke-width="0.574153"/>
<path d="M-475.014 344.653C-105.533 329.226 37.1955 172.823 340.669 166.845C496.382 169.336 608.763 241.389 751.515 264.753C893.363 287.852 1004.82 262.213 1158.77 278.636C1225.91 285.095 1291.74 304.599 1364.94 320.865C1435.62 330.579 1502.77 337.47 1572.79 330.778C1739.07 314.903 1850.48 235.718 1980.08 212.611C2110.57 189.254 2222.95 221.495 2390.92 218.987" stroke="black" stroke-width="0.574153"/>
<path d="M-474.673 344.317C-108.512 329.197 33.4681 172.396 334.127 166.542C490.015 169.033 602.204 243.12 746.203 266.011C889.321 288.654 1000.61 260 1154.76 276.091C1222.29 282.426 1288.19 302.52 1361.5 319.399C1432.13 329.737 1499.4 337.284 1569.98 330.716C1737.03 315.181 1848.27 234.037 1978.55 211.395C2109.74 188.503 2221.9 223.625 2390.62 221.167" stroke="black" stroke-width="0.574153"/>
<path d="M-474.339 343.99C-111.45 329.186 29.7009 171.986 327.594 166.249C483.64 168.656 595.639 244.861 740.891 267.287C885.279 289.464 996.389 257.797 1150.74 273.564C1218.67 279.758 1284.65 300.458 1357.99 317.944C1428.57 328.912 1495.98 337.107 1567.09 330.664C1734.93 315.469 1845.99 232.365 1976.96 210.179C2108.8 187.761 2220.79 225.764 2390.26 223.348" stroke="black" stroke-width="0.574153"/>
<path d="M-473.992 343.689C-114.382 329.192 25.9625 171.594 321.066 166.006C477.278 168.364 589.086 246.652 735.592 268.605C881.259 290.326 992.153 255.645 1146.74 271.096C1215.05 277.166 1281.12 298.496 1354.53 316.547C1425.1 328.171 1492.61 336.997 1564.25 330.662C1732.87 315.8 1843.76 230.736 1975.42 209.015C2107.92 187.054 2219.72 227.938 2389.94 225.621" stroke="black" stroke-width="0.574153"/>
<path d="M-473.612 343.319C-117.283 329.129 22.2653 171.132 314.579 165.636C470.916 167.952 582.524 248.317 730.317 269.788C877.279 291.044 988.007 253.348 1142.76 268.46C1211.47 274.396 1277.61 296.291 1351.1 314.956C1421.59 327.195 1489.26 336.693 1561.43 330.499C1730.81 315.977 1841.55 228.946 1973.9 207.69C2107.07 186.202 2218.67 229.967 2389.65 227.617" stroke="black" stroke-width="0.574153"/>
<path d="M-473.324 342.994C-120.274 329.112 18.4688 170.725 307.985 165.311C464.529 167.569 575.946 250.001 724.959 271.049C873.167 291.807 983.754 251.122 1138.7 265.918C1207.81 271.73 1274.04 294.223 1347.57 313.519C1418.02 326.388 1485.83 336.535 1558.53 330.474C1728.75 316.284 1839.27 227.293 1972.3 206.502C2106.14 185.479 2217.55 232.125 2389.27 229.867" stroke="black" stroke-width="0.574153"/>
<path d="M-473 342.656C-123.23 329.081 14.7161 170.295 301.45 165.039C458.161 167.248 569.379 251.788 719.646 272.346C869.099 292.68 979.528 248.957 1134.69 263.412C1204.18 269.092 1270.47 292.182 1344.09 312.076C1414.5 325.585 1482.44 336.379 1555.68 330.442C1726.65 316.585 1837.02 225.642 1970.74 205.308C2105.25 184.75 2216.47 234.277 2388.94 232.069" stroke="black" stroke-width="0.574153"/>
<path d="M-472.692 342.323C-126.202 329.038 10.9466 169.87 294.883 164.73C451.759 166.898 562.786 253.522 714.307 273.607C865.055 293.476 975.294 246.747 1130.64 260.87C1200.54 266.425 1266.89 290.105 1340.6 310.614C1410.94 324.729 1479.03 336.203 1552.81 330.391C1724.55 316.866 1834.75 223.964 1969.16 204.095C2104.34 184.002 2215.36 236.41 2388.57 234.251" stroke="black" stroke-width="0.574153"/>
<path d="M-472.332 342.027C-129.129 329.074 7.2139 169.491 288.369 164.468C445.411 166.577 556.239 255.286 709.013 274.897C861.04 294.301 971.096 244.558 1126.65 258.349C1196.93 263.779 1263.37 288.057 1337.14 309.163C1407.44 323.934 1475.66 336.04 1549.97 330.353C1722.51 317.159 1832.52 222.306 1967.61 202.894C2103.46 183.274 2214.29 238.597 2388.25 236.454" stroke="black" stroke-width="0.574153"/>
<path d="M-471.967 341.669C-132.044 329.024 3.50173 169.042 281.867 164.144C439.067 166.203 549.712 256.996 703.732 276.15C857.029 295.098 966.935 242.341 1122.67 255.808C1193.34 261.106 1259.86 285.981 1333.69 307.693C1403.95 323.095 1472.3 335.849 1547.15 330.294C1720.46 317.433 1830.28 220.62 1966.09 201.673C2102.61 182.518 2213.25 240.697 2387.96 238.621" stroke="black" stroke-width="0.574153"/>
<path d="M-471.664 341.329C-135.021 328.991 -0.280083 168.628 275.295 163.837C432.669 165.846 543.115 258.723 698.397 277.413C852.957 295.895 962.664 240.124 1118.62 253.26C1189.69 258.432 1256.28 283.906 1330.19 306.224C1400.4 322.257 1468.85 335.658 1544.26 330.228C1718.37 317.699 1828.03 218.969 1964.51 200.445C2101.69 181.755 2212.13 242.79 2387.6 240.797" stroke="black" stroke-width="0.574153"/>
<path d="M-471.334 340.997C-137.971 328.966 -4.02721 168.196 268.758 163.53C426.29 165.489 536.545 260.458 693.081 278.675C848.911 296.701 958.443 237.916 1114.6 250.727C1186.06 255.767 1252.73 281.839 1326.71 304.755C1396.86 321.427 1465.5 335.476 1541.4 330.178C1716.29 317.973 1825.79 217.258 1962.94 199.233C2100.77 180.966 2211.05 244.899 2387.27 242.981" stroke="black" stroke-width="0.574153"/>
<path d="M-471 340.662C-140.916 328.947 -7.77815 167.77 262.217 163.228C419.916 165.138 529.979 262.191 687.769 279.943C844.886 297.503 954.236 235.746 1110.58 248.2C1182.43 253.108 1249.17 279.752 1323.23 303.307C1393.34 320.611 1462.1 335.307 1538.54 330.134C1714.21 318.261 1823.53 215.553 1961.38 198.026C2099.9 180.274 2209.97 247.088 2386.93 245.178" stroke="black" stroke-width="0.574153"/>
<path d="M-470.65 340.362C-143.846 328.945 -11.4969 167.369 255.701 162.952C413.565 164.812 523.429 263.941 682.472 281.228C840.851 298.324 950.035 233.519 1106.59 245.675C1178.82 250.449 1245.65 277.724 1319.78 301.844C1389.83 319.787 1458.73 335.131 1535.72 330.074C1712.16 318.517 1821.34 213.899 1959.85 196.803C2099.04 179.517 2208.94 249.203 2386.62 247.343" stroke="black" stroke-width="0.574153"/>
<path d="M-470.275 340.012C-146.751 328.903 -15.207 166.937 249.201 162.636C407.231 164.438 516.905 265.659 677.202 282.481C836.851 299.087 945.861 231.293 1102.61 243.117C1175.25 247.767 1242.15 275.631 1316.35 300.407C1386.36 318.973 1455.39 334.964 1532.9 330.057C1710.08 318.782 1819.07 212.222 1958.34 195.582C2098.2 178.761 2207.88 251.337 2386.33 249.552" stroke="black" stroke-width="0.574153"/>
<path d="M-469.987 339.678C-149.75 328.884 -19.0116 166.512 242.615 162.327C400.811 164.087 510.285 267.393 671.836 283.741C832.756 299.916 941.591 229.083 1098.55 240.566C1171.62 245.083 1238.55 273.545 1312.82 298.886C1382.79 318.082 1451.95 334.721 1530 329.947C1708.01 319.037 1816.81 210.526 1956.72 194.352C2097.25 177.995 2206.74 253.452 2385.98 251.692" stroke="black" stroke-width="0.574153"/>
<path d="M-469.665 339.348C-152.707 328.853 -22.766 166.09 236.087 162.03C394.449 163.74 503.741 269.138 666.538 285.013C828.728 300.722 937.388 226.893 1094.55 238.043C1167.97 242.436 1235.02 271.496 1309.35 297.434C1379.27 317.27 1448.58 334.557 1527.16 329.907C1705.95 319.329 1814.58 208.858 1955.18 193.149C2096.38 177.266 2205.67 255.596 2385.62 253.894" stroke="black" stroke-width="0.574153"/>
<path d="M-469.329 339.016C-155.652 328.837 -26.5156 165.675 229.531 161.731C388.059 163.392 497.152 270.857 661.202 286.276C824.662 301.528 933.149 224.668 1090.46 235.512C1164.29 239.771 1231.41 269.429 1305.82 295.974C1375.69 316.441 1445.13 334.375 1524.24 329.85C1703.82 319.596 1812.27 207.182 1953.56 191.938C2095.43 176.519 2204.52 257.73 2385.23 256.07" stroke="black" stroke-width="0.574153"/>
<path d="M-468.995 338.709C-158.597 328.837 -30.2583 165.277 222.99 161.449C381.685 163.06 490.586 272.618 655.89 287.571C820.629 302.359 928.933 222.484 1086.49 232.996C1160.7 237.147 1227.9 267.387 1302.37 294.537C1372.19 315.635 1441.76 334.209 1521.41 329.825C1701.77 319.861 1810.05 205.53 1952.02 190.742C2094.57 175.797 2203.47 259.889 2384.92 258.278" stroke="black" stroke-width="0.574153"/>
<path d="M-468.649 338.359C-161.531 328.794 -33.9979 164.827 216.469 161.132C375.321 162.693 484.032 274.334 650.59 288.815C816.599 303.146 924.737 220.257 1082.49 230.437C1157.1 234.447 1224.37 265.309 1298.92 293.049C1368.66 314.786 1438.41 334.008 1518.59 329.748C1699.73 320.142 1807.84 203.834 1950.49 189.511C2093.71 175.023 2202.41 261.996 2384.62 260.444" stroke="black" stroke-width="0.574153"/>
<path d="M-468.336 338.022C-164.497 328.765 -37.7612 164.416 209.916 160.829C368.934 162.332 477.446 276.066 645.257 290.081C812.536 303.939 920.5 218.045 1078.46 227.9C1153.46 231.778 1220.8 263.221 1295.43 291.584C1365.17 313.944 1435 333.813 1515.71 329.695C1697.64 320.404 1805.57 202.153 1948.92 188.287C2092.8 174.272 2201.33 264.126 2384.26 262.623" stroke="black" stroke-width="0.574153"/>
<path d="M-467.981 337.685C-167.414 328.734 -41.4833 163.987 203.396 160.524C362.58 161.977 470.901 277.787 639.974 291.337C808.524 304.738 916.305 215.83 1074.46 225.354C1149.85 229.107 1217.27 261.148 1292 290.117C1361.68 313.116 1431.66 333.633 1512.91 329.639C1695.61 320.672 1803.38 200.478 1947.41 187.069C2091.96 173.527 2200.28 266.263 2383.98 264.801" stroke="black" stroke-width="0.574153"/>
<path d="M-467.637 337.353C-170.391 328.71 -45.2325 163.564 196.865 160.218C356.216 161.629 464.336 279.523 634.663 292.608C804.475 305.544 912.09 213.622 1070.45 222.864C1146.23 226.475 1213.73 259.123 1288.5 288.689C1358.13 312.32 1428.25 333.476 1510.03 329.623C1693.52 320.963 1801.1 198.826 1945.83 185.89C2091.05 172.805 2199.17 268.422 2383.62 267.019" stroke="black" stroke-width="0.574153"/>
<path d="M-467.344 337.046C-173.353 328.743 -49.0163 163.174 190.25 159.944C349.767 161.297 457.696 281.283 629.277 293.896C800.368 306.35 907.8 211.439 1066.36 220.306C1142.53 223.794 1210.11 257.039 1284.95 287.212C1354.53 311.473 1424.79 333.276 1507.1 329.557C1691.38 321.254 1798.79 197.141 1944.2 184.662C2090.09 172.05 2198.02 270.548 2383.22 269.194" stroke="black" stroke-width="0.574153"/>
<path d="M-467.01 336.686C-176.299 328.665 -52.7673 162.722 183.751 159.617C343.433 160.921 451.172 282.991 623.999 295.138C796.36 307.152 903.617 209.202 1062.39 217.746C1138.96 221.067 1206.62 254.943 1281.53 285.714C1351.06 310.623 1421.46 333.041 1504.3 329.471C1689.35 321.45 1796.56 195.428 1942.69 183.413C2089.26 171.266 2196.99 272.645 2382.94 271.342" stroke="black" stroke-width="0.574153"/>
<path d="M-466.675 336.355C-179.243 328.642 -56.5084 162.301 177.212 159.32C337.06 160.574 444.608 284.695 618.688 296.402C792.32 307.959 899.403 206.995 1058.36 215.207C1135.33 218.437 1203.05 252.878 1278.03 284.255C1347.52 309.786 1418.06 332.868 1501.43 329.414C1687.27 321.709 1794.34 193.752 1941.12 182.195C2088.35 170.521 2195.89 274.781 2382.59 273.527" stroke="black" stroke-width="0.574153"/>
<path d="M-466.35 336.032C-182.206 328.626 -60.2686 161.861 170.67 159.021C330.676 160.225 438.025 286.464 613.367 297.681C788.269 308.765 895.186 204.796 1054.35 212.684C1131.7 215.781 1199.5 250.819 1274.56 282.802C1343.99 308.956 1414.66 332.694 1498.57 329.373C1685.19 321.984 1792.08 192.084 1939.56 180.991C2087.46 169.774 2194.81 276.915 2382.25 275.711" stroke="black" stroke-width="0.574153"/>
<path d="M-465.997 335.693C-185.124 328.593 -63.992 161.463 164.148 158.715C324.329 159.869 431.503 288.191 608.074 298.935C784.255 309.563 890.989 202.621 1050.35 210.135C1128.1 213.108 1195.97 248.736 1271.1 281.325C1340.49 308.118 1411.29 332.496 1495.74 329.307C1683.14 322.233 1789.86 190.399 1938.02 179.763C2086.59 169.019 2193.75 279.041 2381.94 277.887" stroke="black" stroke-width="0.574153"/>
<path d="M-465.686 335.386C-188.085 328.602 -67.7585 161.065 157.592 158.441C317.931 159.546 424.898 289.952 602.739 300.231C780.189 310.394 886.75 200.396 1046.31 207.628C1124.45 210.468 1192.44 246.694 1267.6 279.864C1336.94 307.264 1407.88 332.305 1492.86 329.258C1681.04 322.5 1787.61 188.714 1936.43 178.551C2085.68 168.272 2192.64 281.176 2381.58 280.071" stroke="black" stroke-width="0.574153"/>
<path d="M-465.333 335.023C-191.02 328.547 -71.4987 160.619 151.07 158.104C311.575 159.158 418.343 291.657 597.438 301.462C776.159 311.169 882.544 198.157 1042.3 205.057C1120.84 207.772 1188.87 244.595 1264.14 278.388C1333.43 306.452 1404.5 332.109 1489.98 329.194C1678.95 322.751 1785.32 187.031 1934.85 177.325C2084.77 167.519 2191.54 283.296 2381.23 282.241" stroke="black" stroke-width="0.574153"/>
<path d="M-464.981 334.694C-193.948 328.525 -75.2238 160.199 144.547 157.841C305.218 158.845 411.795 293.42 592.143 302.769C772.135 312.01 878.346 195.985 1038.31 202.552C1117.24 205.143 1185.34 242.564 1260.68 276.963C1329.93 305.658 1401.13 331.954 1487.18 329.181C1676.93 323.045 1783.13 185.39 1933.35 176.149C2083.94 166.8 2190.51 285.466 2380.95 284.461" stroke="black" stroke-width="0.574153"/>
<path d="M-464.658 334.365C-196.904 328.503 -78.9855 159.779 138.004 157.512C298.841 158.467 405.227 295.125 586.821 304.001C768.082 312.786 874.103 193.746 1034.28 199.99C1113.6 202.481 1181.79 240.467 1257.19 275.472C1326.39 304.798 1397.74 331.733 1484.31 329.093C1674.85 323.281 1780.88 183.683 1931.78 174.899C2083.04 166.023 2189.42 287.57 2380.61 286.615" stroke="black" stroke-width="0.574153"/>
<path d="M-464.33 334.032C-199.856 328.477 -82.734 159.362 131.457 157.179C292.46 158.075 398.655 296.826 581.478 305.237C764.01 313.54 869.864 191.487 1030.23 197.415C1109.94 199.74 1178.2 238.365 1253.68 273.968C1322.83 303.934 1394.31 331.516 1481.43 329C1672.74 323.495 1778.59 181.971 1930.19 173.652C2082.13 165.241 2188.3 289.661 2380.21 288.756" stroke="black" stroke-width="0.574153"/>
<path d="M-464.007 333.727C-202.813 328.488 -86.4968 158.966 124.913 156.932C286.074 157.762 392.078 298.622 576.187 306.56C759.99 314.414 865.678 189.355 1026.21 194.943C1106.31 197.135 1174.64 236.35 1250.2 272.567C1319.29 303.156 1390.92 331.377 1478.53 329.028C1670.63 323.83 1776.31 180.405 1928.59 172.508C2081.18 164.571 2187.18 291.872 2379.86 291.017" stroke="black" stroke-width="0.574153"/>
<path d="M-463.656 333.36C-205.741 328.428 -90.2218 158.508 118.382 156.599C279.717 157.429 385.521 300.315 570.893 307.795C755.966 315.185 861.497 187.112 1022.24 192.384C1102.74 194.452 1171.15 234.264 1246.77 271.088C1315.83 302.307 1387.58 331.002 1475.76 328.935C1668.63 323.679 1774.14 178.651 1927.12 171.262C2080.38 163.789 2186.17 293.971 2379.63 293.166" stroke="black" stroke-width="0.574153"/>
<path d="M-463.322 333.034C-208.695 328.409 -93.973 158.099 111.849 156.305C273.341 157.052 378.955 302.055 565.572 309.08C751.916 316.013 857.255 184.926 1018.22 189.857C1099.1 191.792 1167.59 232.203 1243.28 269.624C1312.29 301.483 1384.19 330.825 1472.89 328.89C1666.55 323.959 1771.89 176.946 1925.55 170.047C2079.48 163.039 2185.09 296.102 2379.27 295.355" stroke="black" stroke-width="0.574153"/>
<path d="M-462.994 332.702C-211.647 328.384 -97.73 157.675 105.302 155.998C266.969 156.704 372.383 303.791 560.254 310.333C747.901 316.801 853.033 182.7 1014.19 187.3C1095.48 189.11 1164.04 230.119 1239.81 268.146C1308.72 300.636 1380.79 330.626 1470.03 328.816C1664.48 324.224 1769.64 175.286 1923.99 168.818C2078.59 162.275 2184.01 298.219 2378.93 297.514" stroke="black" stroke-width="0.574153"/>
<path d="M-462.66 332.376C-214.592 328.365 -101.481 157.258 98.7697 155.705C260.594 156.361 365.818 305.532 554.943 311.601C743.835 317.613 848.818 180.498 1010.19 184.774C1091.86 186.434 1160.47 228.057 1236.33 266.682C1305.25 299.811 1377.41 330.449 1467.16 328.772C1662.38 324.504 1767.37 173.615 1922.41 167.603C2077.67 161.534 2182.9 300.359 2378.58 299.703" stroke="black" stroke-width="0.574153"/>
<path d="M-462.324 332.069C-217.536 328.374 -105.222 156.876 92.2303 155.432C254.229 156.038 359.254 307.293 549.632 312.897C739.77 318.444 844.603 178.315 1006.17 182.258C1088.24 183.811 1156.95 226.015 1232.84 265.288C1301.71 299.048 1373.99 330.334 1464.32 328.781C1660.33 324.845 1765.14 172.004 1920.86 166.458C2076.8 160.853 2181.83 302.56 2378.26 301.954" stroke="black" stroke-width="0.574153"/>
<path d="M-461.981 331.708C-220.473 328.321 -108.956 156.416 85.7065 155.104C247.863 155.652 352.705 308.992 544.329 314.131C735.762 319.212 840.396 176.078 1002.16 179.698C1084.63 181.118 1153.42 223.919 1229.4 263.757C1298.21 298.14 1370.65 330.081 1461.49 328.661C1658.27 325.049 1762.89 170.249 1919.33 165.168C2075.94 160.028 2180.78 304.657 2377.95 304.068" stroke="black" stroke-width="0.574153"/>
<path d="M-461.687 331.375C-223.458 328.294 -112.747 155.992 79.1344 154.796C241.457 155.302 346.1 310.726 538.977 315.4C731.681 320.017 836.148 173.868 998.131 177.156C1080.98 178.451 1149.84 221.842 1225.9 262.286C1294.66 297.308 1367.24 329.897 1458.61 328.602C1656.22 325.322 1760.65 168.571 1917.77 163.954C2075.05 159.28 2179.68 306.765 2377.62 306.242" stroke="black" stroke-width="0.574153"/>
<path d="M-461.341 331.043C-226.368 328.27 -116.478 155.577 72.6052 154.498C235.094 154.954 339.545 312.461 533.677 316.663C727.65 320.814 831.944 171.66 994.109 174.616C1077.35 175.778 1146.29 219.775 1222.44 260.825C1291.16 296.478 1363.87 329.74 1455.75 328.552C1654.12 325.597 1758.4 166.894 1916.19 162.734C2074.14 158.533 2178.56 308.866 2377.26 308.426" stroke="black" stroke-width="0.574153"/>
<path d="M-461.007 330.716C-229.355 328.225 -120.229 155.15 66.0643 154.195C228.711 154.594 332.971 314.193 528.357 317.93C723.609 321.624 827.72 169.448 990.084 172.08C1073.73 173.109 1142.74 217.746 1218.94 259.361C1287.6 295.644 1360.45 329.529 1452.89 328.491C1652.04 325.867 1756.15 165.213 1914.62 161.518C2073.2 157.782 2177.5 310.972 2376.92 310.606" stroke="black" stroke-width="0.574153"/>
<path d="M-460.653 330.405C-232.272 328.238 -123.96 154.748 59.544 153.917C222.365 154.266 326.426 315.941 523.073 319.213C719.588 322.451 823.524 167.269 986.088 169.56C1070.12 170.465 1139.21 215.658 1215.48 257.912C1284.11 294.835 1357.09 329.317 1450.06 328.487C1649.99 326.187 1753.95 163.582 1913.09 160.344C2072.38 157.073 2176.43 313.185 2376.61 312.836" stroke="black" stroke-width="0.574153"/>
<path d="M-460.339 330.062C-235.238 328.211 -127.723 154.322 52.991 153.6C215.97 153.907 319.84 317.666 517.741 320.489C715.642 323.312 819.288 165.066 982.059 167.034C1066.48 167.806 1135.66 213.597 1211.98 256.457C1280.56 294.011 1353.68 329.182 1447.19 328.41C1647.9 326.442 1751.66 161.886 1911.51 159.113C2071.36 156.339 2175.33 315.3 2376.26 314.993" stroke="black" stroke-width="0.574153"/>
<path d="M-460.005 329.732C-238.184 328.187 -131.474 153.9 46.4753 153.302C209.628 153.551 313.299 319.361 512.454 321.736C711.608 324.111 815.097 162.842 978.067 164.478C1062.88 165.126 1132.13 211.514 1208.54 254.98C1277.07 293.174 1350.32 328.993 1444.34 328.345C1645.84 326.685 1749.43 160.194 1909.96 157.885C2070.49 155.577 2174.26 317.41 2375.94 317.128" stroke="black" stroke-width="0.574153"/>
<path d="M-459.639 329.387C-241.097 328.149 -135.185 153.464 39.9496 152.99C203.26 153.19 306.741 321.125 507.149 322.993C707.558 324.862 810.888 160.621 974.057 161.916C1059.27 162.431 1128.59 209.409 1205.07 253.481C1273.55 292.297 1346.94 328.772 1441.51 328.257C1643.79 326.945 1747.2 158.479 1908.43 156.635C2069.66 154.792 2173.2 319.514 2375.63 319.315" stroke="black" stroke-width="0.574153"/>
<path d="M-459.326 329.058C-244.063 328.128 -138.956 153.035 33.3884 152.687C196.874 152.844 300.162 322.856 501.816 324.259C703.47 325.662 806.701 158.416 970.029 159.362C1055.63 159.752 1125.02 207.328 1201.57 252.007C1270.01 291.454 1343.55 328.577 1438.64 328.186C1641.7 327.207 1744.94 156.788 1906.85 155.402C2068.76 154.015 2172.11 321.635 2375.27 321.461" stroke="black" stroke-width="0.574153"/>
<path d="M-458.992 328.742C-247.009 328.119 -142.699 152.644 26.8556 152.403C190.499 152.503 293.597 324.607 496.504 325.545C699.412 326.483 802.444 156.206 966.012 156.87C1052.01 157.128 1121.48 205.301 1198.1 250.578C1266.48 290.664 1340.15 328.434 1435.79 328.177C1639.64 327.521 1742.7 155.152 1905.29 154.23C2067.89 153.308 2171.03 323.801 2374.94 323.702" stroke="black" stroke-width="0.574153"/>
<path d="M-458.705 328.391C-250.01 328.084 -146.513 152.202 20.2682 152.086C184.069 152.136 286.976 326.323 491.137 326.788C695.299 327.253 798.172 153.996 961.915 154.319C1048.31 154.452 1117.85 203.224 1194.55 249.106C1262.88 289.79 1336.69 328.242 1432.84 328.109C1637.48 327.785 1740.37 153.464 1903.62 152.999C2066.87 152.534 2169.82 325.925 2374.49 325.875" stroke="black" stroke-width="0.574153"/>
<path d="M-458.352 328.059C-252.936 328.059 -150.229 151.788 13.7462 151.788C177.721 151.788 280.429 328.059 485.844 328.059C691.259 328.059 793.975 151.788 957.942 151.788C1121.91 151.788 1224.62 328.059 1430.05 328.059C1635.47 328.059 1738.17 151.788 1902.15 151.788C2066.12 151.788 2168.83 328.059 2374.24 328.059" stroke="black" stroke-width="0.574153"/>
</mask>
<g mask="url(#mask1)">
<rect opacity="0.85" x="-2" y="6" width="1920" height="509" fill="url(#paint0_linear)"/>
</g>
</g>
<defs>
<linearGradient id="paint0_linear" x1="-2" y1="173.158" x2="1918" y2="173.158" gradientUnits="userSpaceOnUse">
<stop stop-color="#EBB12D"/>
<stop offset="0.489583" stop-color="#E3524A"/>
<stop offset="0.723958" stop-color="#369BDC"/>
<stop offset="1" stop-color="#35E19E"/>
</linearGradient>
</defs>
</svg>
