<svg width="54" height="43" viewBox="0 0 54 43" fill="none" xmlns="http://www.w3.org/2000/svg">
<path d="M52.9601 25.7275C51.6339 24.109 49.4031 23.6195 47.5351 24.5372L37.4819 29.4748V28.9385C37.4819 26.077 35.1855 23.749 32.3628 23.749H18.1317C17.9018 23.749 17.6783 23.8241 17.495 23.9628L12.8128 27.5085V25.7091C12.8128 25.1267 12.3406 24.6545 11.7581 24.6545H1.05466C0.472172 24.6545 0 25.1267 0 25.7091V38.6549C0 39.2374 0.472172 39.7095 1.05466 39.7095H11.7581C12.3406 39.7095 12.8128 39.2374 12.8128 38.6549V37.4232L28.751 41.9205C29.277 42.0776 29.8173 42.1556 30.356 42.1555C31.1789 42.1555 31.9981 41.9737 32.7557 41.6144L51.3825 32.7803C52.6565 32.1849 53.5679 31.0492 53.8829 29.664C54.2008 28.2659 53.8644 26.8312 52.9601 25.7275ZM10.7034 37.6002H2.10932V26.7638H10.7034V37.6002ZM51.826 29.1964C51.6564 29.9419 51.1692 30.5518 50.484 30.872L31.8518 39.7085C31.0683 40.0799 30.1795 40.1472 29.3491 39.8977C29.3434 39.896 29.3378 39.8943 29.332 39.8927L12.8129 35.2316V30.1543L18.4861 25.8583H32.3629C34.0225 25.8583 35.3727 27.2402 35.3727 28.9385V30.1132H27.8499C27.2674 30.1132 26.7953 30.5854 26.7953 31.1678C26.7953 31.7503 27.2674 32.2225 27.8499 32.2225H36.4292C36.4299 32.2226 36.4306 32.2225 36.4311 32.2225H36.4331C36.6055 32.2215 36.768 32.1794 36.9115 32.1051L48.4652 26.4304C49.4493 25.9472 50.6268 26.2078 51.3286 27.0644C51.8171 27.6607 51.9985 28.4377 51.826 29.1964Z" fill="#06222E"/>
<path d="M35.3356 3.31455C30.258 8.37787 32.5088 18.8317 32.5088 18.8317C32.5088 18.8317 42.9919 21.0761 48.0695 16.0128C53.147 10.9495 50.8963 0.495645 50.8963 0.495645C50.8963 0.495645 40.4131 -1.74878 35.3356 3.31455Z" fill="#35E19D"/>
<path d="M30.2609 5.50971C34.6201 9.85681 32.6877 18.8317 32.6877 18.8317C32.6877 18.8317 23.6876 20.7586 19.3282 16.4115C14.969 12.0644 16.9013 3.08957 16.9013 3.08957C16.9013 3.08957 25.9015 1.16271 30.2609 5.50971Z" fill="#35E19D"/>
</svg>
