<svg width="54" height="54" viewBox="0 0 54 54" fill="none" xmlns="http://www.w3.org/2000/svg">
<path d="M52.9602 36.7226C51.6341 35.1043 49.4031 34.6145 47.5352 35.5323L37.4821 40.4699V39.9336C37.4821 37.0721 35.1857 34.7441 32.363 34.7441H18.1318C17.9018 34.7441 17.6783 34.8192 17.4951 34.958L12.8128 38.5037V36.7042C12.8128 36.1218 12.3406 35.6496 11.7581 35.6496H1.05466C0.472172 35.6496 0 36.1218 0 36.7042V49.65C0 50.2325 0.472172 50.7047 1.05466 50.7047H11.7581C12.3406 50.7047 12.8128 50.2325 12.8128 49.65V48.4183L28.7516 52.9158C29.2773 53.0727 29.8174 53.1507 30.356 53.1506C31.179 53.1506 31.998 52.9688 32.7557 52.6095L51.3825 43.7755C52.6565 43.1802 53.5678 42.0444 53.8828 40.6592C54.2008 39.2612 53.8646 37.8264 52.9602 36.7226ZM10.7035 48.5953H2.10933V37.7589H10.7035V48.5953ZM51.826 40.1915C51.6565 40.9371 51.1693 41.547 50.4841 41.8672L31.8519 50.7037C31.0683 51.0752 30.1794 51.1424 29.3493 50.8929C29.3436 50.8912 29.3379 50.8896 29.3322 50.888L12.8129 46.2268V41.1495L18.4861 36.8536H32.363C34.0226 36.8536 35.3728 38.2354 35.3728 39.9337V41.1084H27.8499C27.2675 41.1084 26.7953 41.5807 26.7953 42.1631C26.7953 42.7454 27.2675 43.2177 27.8499 43.2177H36.4311C36.4319 43.2176 36.4324 43.2177 36.4331 43.2177C36.6057 43.2168 36.7684 43.1745 36.9118 43.1002L48.4651 37.4256C49.4492 36.9425 50.627 37.2031 51.3286 38.0597C51.8172 38.6559 51.9986 39.433 51.826 40.1915Z" fill="#06222E"/>
<path d="M33.511 32.3698C42.4354 32.3698 49.696 25.1092 49.696 16.1849C49.696 7.26051 42.4354 0 33.511 0C24.5867 0 17.3262 7.26051 17.3262 16.1849C17.3262 25.1092 24.5867 32.3698 33.511 32.3698ZM33.511 2.10933C41.2724 2.10933 47.5867 8.42359 47.5867 16.1849C47.5867 23.9462 41.2724 30.2605 33.511 30.2605C25.7498 30.2605 19.4355 23.9462 19.4355 16.1849C19.4355 8.42359 25.7498 2.10933 33.511 2.10933Z" fill="#06222E"/>
<path d="M35.082 14.3302L35.7492 5.3291L27.0684 18.0175H32.9673L31.7459 27.0419L39.956 14.1499L35.082 14.3302Z" fill="#EBB12D"/>
</svg>
