<svg width="54" height="44" viewBox="0 0 54 44" fill="none" xmlns="http://www.w3.org/2000/svg">
<path d="M34.8056 0C31.8063 0 29.4531 3.3442 29.4531 3.3442C29.4531 3.3442 27.2333 0 24.0993 0C21.0508 0 18.5614 2.51437 18.3986 5.55862C18.3068 7.27839 18.8613 8.58737 19.6424 9.77273C21.2033 12.1411 29.4632 17.5947 29.4632 17.5947C29.4632 17.5947 37.692 12.1619 39.2633 9.77273C40.046 8.58188 40.5989 7.27839 40.5067 5.55862C40.3438 2.51437 37.8543 0 34.8056 0Z" fill="#E24B4C"/>
<path d="M42.8136 26.8261C42.9899 26.9425 43.1923 27.0006 43.3948 27.0006C43.5972 27.0006 43.7997 26.9424 43.9759 26.8261C44.7643 26.3057 48.744 23.6371 49.6826 22.21C50.086 21.5962 50.614 20.6215 50.5404 19.2495C50.4186 16.9702 48.5743 15.1846 46.3421 15.1846C45.1061 15.1846 44.0804 15.8707 43.4024 16.496C42.7348 15.8681 41.7142 15.1846 40.4355 15.1846C38.2035 15.1846 36.3594 16.97 36.2374 19.2495C36.164 20.6245 36.6922 21.5982 37.0961 22.2111C38.029 23.6266 42.0224 26.3038 42.8136 26.8261ZM38.3437 19.3622C38.4047 18.2218 39.3432 17.2939 40.4355 17.2939C41.3747 17.2939 42.2536 18.2882 42.5104 18.6675C42.7031 18.9577 43.0266 19.1341 43.3748 19.1388C43.3797 19.1389 43.3844 19.1389 43.3892 19.1389C43.7322 19.1389 44.0541 18.9721 44.2518 18.6911C44.4595 18.396 45.4228 17.2939 46.3421 17.2939C47.4345 17.2939 48.373 18.2218 48.4341 19.3623C48.466 19.9579 48.3171 20.4472 47.92 21.0512C47.4574 21.7545 45.1678 23.468 43.3947 24.6758C41.6146 23.4638 39.3167 21.7473 38.8574 21.0503C38.4606 20.4483 38.3118 19.9591 38.3437 19.3622Z" fill="#06222E"/>
<path d="M52.7945 28.3077C51.2936 26.7886 48.9356 26.5718 47.1875 27.792C47.1778 27.7987 47.1682 27.8057 47.1588 27.8128L41.0141 32.417C40.977 32.0056 40.8802 31.5957 40.7225 31.201C40.1885 29.8637 39.0388 28.8779 37.6471 28.5639C37.0561 28.4306 36.5971 28.3657 36.2441 28.3657H25.4693C25.3532 28.2546 25.1376 28.0256 24.7664 27.5642C22.9006 25.245 21.037 23.8791 19.0691 23.3885C17.0432 22.8832 14.8911 23.2811 12.4979 24.6047H8.15864V24.1611C8.15864 23.5786 7.68635 23.1064 7.10395 23.1064H1.05469C0.472183 23.1064 0 23.5786 0 24.1611V35.4774C0 36.0599 0.472183 36.5321 1.05469 36.5321H7.10395C7.62053 36.5321 8.05032 36.1606 8.14102 35.6703C9.35465 36.5011 10.783 37.6472 11.2905 38.6531C12.4491 40.9492 15.7435 43.4206 20.2389 43.4206C26.0043 43.4206 37.7851 43.4352 37.9048 43.4354L38.0859 43.4355H38.1513C40.236 43.4355 41.377 43.3229 43.9333 41.2289L52.4587 34.4985C52.4638 34.4945 52.4689 34.4904 52.4739 34.4863C53.3785 33.7446 53.9327 32.6457 53.9943 31.4713C54.0559 30.2949 53.6186 29.1419 52.7945 28.3077ZM6.04926 34.4226H2.10937V25.2157H6.04926V34.4226ZM51.8877 31.3607C51.8568 31.9497 51.5925 32.4781 51.1432 32.8494L42.6186 39.5792C42.6136 39.5832 42.6085 39.5873 42.6034 39.5914C40.4844 41.3285 39.8826 41.3296 38.0879 41.3261L37.9061 41.3259C37.7877 41.3258 26.0055 41.3111 20.2388 41.3111C16.8324 41.3111 14.0563 39.452 13.1737 37.7027C12.1943 35.7616 9.38344 33.9115 8.15864 33.1721V26.714H12.7751C12.9599 26.714 13.1413 26.6655 13.3014 26.5733C17.2162 24.319 19.9701 24.9674 23.123 28.8864C23.9891 29.9629 24.52 30.4751 25.1951 30.4751H36.2441C36.3522 30.4751 36.6181 30.4941 37.1828 30.6216C37.8965 30.7826 38.4873 31.2917 38.7635 31.9833C39.0345 32.6618 38.9627 33.3909 38.5665 33.9839C38.5085 34.0707 38.446 34.1509 38.3808 34.2223C38.3149 34.2945 38.2587 34.3619 38.2105 34.4226H21.2936C20.7112 34.4226 20.2389 34.8948 20.2389 35.4773C20.2389 36.0598 20.7112 36.532 21.2936 36.532H38.6822C38.7114 36.5322 38.7407 36.5311 38.7699 36.5289H38.7704C38.7788 36.5283 38.7873 36.5275 38.7958 36.5267C38.7964 36.5266 38.7972 36.5266 38.7978 36.5265C38.8055 36.5256 38.8132 36.5248 38.8209 36.5239C38.8223 36.5236 38.8238 36.5235 38.8251 36.5233C38.8321 36.5225 38.8391 36.5214 38.846 36.5204C38.8479 36.5201 38.8498 36.5198 38.8517 36.5195C38.8578 36.5186 38.864 36.5175 38.8702 36.5165C38.8729 36.5159 38.8756 36.5155 38.8784 36.515C38.8833 36.5141 38.8882 36.5131 38.8932 36.5121C38.8972 36.5114 38.9011 36.5106 38.9051 36.5098C38.9082 36.5092 38.9115 36.5085 38.9147 36.5077C38.9203 36.5064 38.9258 36.5053 38.9314 36.504C38.9327 36.5037 38.9341 36.5034 38.9354 36.5031C39.0626 36.4726 39.181 36.4191 39.2856 36.3472C39.3255 36.3204 39.3627 36.2927 39.3975 36.2644L48.4083 29.5126C49.3103 28.8926 50.5214 29.008 51.2942 29.7903C51.708 30.2093 51.9189 30.7671 51.8877 31.3607Z" fill="#06222E"/>
</svg>
