<svg width="32" height="32" viewBox="0 0 32 32" fill="none" xmlns="http://www.w3.org/2000/svg">
<path d="M16 0C7.17725 0 0 7.17725 0 16C0 24.8228 7.17725 32 16 32C24.8228 32 32 24.8228 32 16C32 7.17725 24.8228 0 16 0Z" fill="#485DD8"/>
<path d="M24.1084 12.6095L15.4416 21.276C15.1816 21.536 14.8403 21.6669 14.499 21.6669C14.1577 21.6669 13.8164 21.536 13.5564 21.276L9.22314 16.9428C8.70166 16.4215 8.70166 15.5787 9.22314 15.0575C9.74438 14.536 10.5869 14.536 11.1084 15.0575L14.499 18.4481L22.2231 10.7242C22.7444 10.2028 23.5869 10.2028 24.1084 10.7242C24.6296 11.2455 24.6296 12.088 24.1084 12.6095V12.6095Z" fill="#FAFAFA"/>
</svg>
